G75*
%MOIN*%
%OFA0B0*%
%FSLAX25Y25*%
%IPPOS*%
%LPD*%
%AMOC8*
5,1,8,0,0,1.08239X$1,22.5*
%
%ADD10C,0.00039*%
%ADD11R,0.03150X0.04724*%
%ADD12R,0.04724X0.03150*%
%ADD13R,0.09843X0.01969*%
%ADD14R,0.09843X0.07874*%
%ADD15R,0.05709X0.01181*%
%ADD16R,0.02400X0.08700*%
%ADD17R,0.05500X0.01370*%
%ADD18R,0.01772X0.03937*%
%ADD19R,0.03937X0.01772*%
D10*
X0030978Y0001256D02*
X0030978Y0158736D01*
X0326339Y0158736D01*
X0326339Y0001256D01*
X0030978Y0001256D01*
D11*
X0101419Y0044780D03*
X0108505Y0044780D03*
X0113379Y0045909D03*
X0120466Y0045909D03*
X0110485Y0064740D03*
X0103399Y0064740D03*
X0099060Y0064969D03*
X0091974Y0064969D03*
X0206312Y0041528D03*
X0213399Y0041528D03*
X0254525Y0082559D03*
X0261611Y0082559D03*
X0275851Y0100801D03*
X0282937Y0100801D03*
X0301264Y0105187D03*
X0308351Y0105187D03*
X0311638Y0131687D03*
X0304552Y0131687D03*
X0073167Y0137831D03*
X0066080Y0137831D03*
D12*
X0163123Y0086335D03*
X0163123Y0079248D03*
X0164107Y0047240D03*
X0164107Y0040154D03*
X0072588Y0067662D03*
X0072588Y0074749D03*
D13*
X0063375Y0066929D03*
X0063375Y0063780D03*
X0063375Y0060630D03*
X0063375Y0057480D03*
X0063375Y0054331D03*
D14*
X0063375Y0042913D03*
X0041722Y0042913D03*
X0041722Y0078346D03*
X0063375Y0078346D03*
D15*
X0093202Y0058441D03*
X0093202Y0056472D03*
X0093202Y0054504D03*
X0093202Y0052535D03*
X0093202Y0050567D03*
X0110919Y0050567D03*
X0110919Y0052535D03*
X0110919Y0054504D03*
X0110919Y0056472D03*
X0110919Y0058441D03*
D16*
X0282327Y0106918D03*
X0287327Y0106918D03*
X0292327Y0106918D03*
X0297327Y0106918D03*
X0297327Y0127518D03*
X0292327Y0127518D03*
X0287327Y0127518D03*
X0282327Y0127518D03*
D17*
X0155017Y0079425D03*
X0155017Y0076866D03*
X0155017Y0074307D03*
X0155017Y0071748D03*
X0155017Y0069189D03*
X0155017Y0066630D03*
X0155017Y0064071D03*
X0155017Y0061512D03*
X0155017Y0058953D03*
X0155017Y0056394D03*
X0155017Y0053835D03*
X0155017Y0051276D03*
X0155017Y0048717D03*
X0155017Y0046157D03*
X0126230Y0046157D03*
X0126230Y0048717D03*
X0126230Y0051276D03*
X0126230Y0053835D03*
X0126230Y0056394D03*
X0126230Y0058953D03*
X0126230Y0061512D03*
X0126230Y0064071D03*
X0126230Y0066630D03*
X0126230Y0069189D03*
X0126230Y0071748D03*
X0126230Y0074307D03*
X0126230Y0076866D03*
X0126230Y0079425D03*
D18*
X0081647Y0093953D03*
X0078497Y0093953D03*
X0075348Y0093953D03*
X0072198Y0093953D03*
X0069048Y0093953D03*
X0065899Y0093953D03*
X0062749Y0093953D03*
X0059600Y0093953D03*
X0059600Y0126630D03*
X0062749Y0126630D03*
X0065899Y0126630D03*
X0069048Y0126630D03*
X0072198Y0126630D03*
X0075348Y0126630D03*
X0078497Y0126630D03*
X0081647Y0126630D03*
D19*
X0086962Y0121315D03*
X0086962Y0118165D03*
X0086962Y0115016D03*
X0086962Y0111866D03*
X0086962Y0108717D03*
X0086962Y0105567D03*
X0086962Y0102417D03*
X0086962Y0099268D03*
X0054285Y0099268D03*
X0054285Y0102417D03*
X0054285Y0105567D03*
X0054285Y0108717D03*
X0054285Y0111866D03*
X0054285Y0115016D03*
X0054285Y0118165D03*
X0054285Y0121315D03*
M02*
