%
M48
M72
T01C0.02000
T02C0.02165
T03C0.02362
T04C0.02500
T05C0.02559
T06C0.03150
T07C0.03200
T08C0.03500
T09C0.04000
%
T01
X125623Y96091
X125623Y115291
T02
X146812Y116587
X167796Y116602
X188694Y117181
X188694Y97496
X167796Y96917
X146812Y96902
X106981Y31354
X87296Y31354
X134970Y27528
X154655Y27528
X160186Y27587
X179871Y27587
X185277Y27756
X204962Y27756
X288985Y90962
X308670Y90962
X304241Y142958
X284556Y142958
T03
X271804Y125764
X271804Y118874
X271804Y111492
X190111Y85902
X127119Y84917
X71017Y54406
X120230Y41610
X117769Y29307
X172395Y46531
X209796Y47516
X294434Y10390
X304513Y10390
X314592Y10390
X87442Y135287
X87442Y143319
X72985Y141020
X51824Y126256
T04
X44745Y19891
X44745Y26171
X44745Y33435
X64745Y33435
X64745Y26171
X64745Y19891
X111155Y39260
X131155Y39260
X161686Y59268
X181686Y59268
X181596Y67169
X181580Y73732
X181580Y80248
X201580Y80248
X201580Y73732
X201596Y67169
X214899Y89697
X229107Y89626
X241422Y90114
X252367Y76083
X252367Y68087
X252056Y59598
X252056Y50350
X262060Y39937
X272056Y50350
X272056Y59598
X272367Y68087
X272367Y76083
X283619Y77720
X303619Y77720
X241422Y110114
X229107Y109626
X214899Y109697
X118615Y82331
X108123Y97791
X98123Y97791
X98123Y117791
X108123Y117791
X118615Y62331
X218828Y38366
X227730Y38780
X235147Y39366
X235147Y19366
X227730Y18780
X218828Y18366
X262060Y19937
T05
X97981Y91213
X88139Y91213
X107332Y125760
X117174Y125760
T06
X288009Y59862
X288009Y50020
X307694Y40177
X288009Y30335
X288009Y20492
T07
X247800Y19398
X247800Y39398
X313828Y68311
X313828Y78311
X255194Y92555
X255194Y112555
T08
X244627Y82280
X244627Y72280
X244627Y62280
X244627Y52280
X214627Y52280
X214627Y62280
X214627Y72280
X214627Y82280
T09
X304906Y119994
X314906Y119994
X109481Y80980
X99481Y80980
M30
