G75*
%MOIN*%
%OFA0B0*%
%FSLAX25Y25*%
%IPPOS*%
%LPD*%
%AMOC8*
5,1,8,0,0,1.08239X$1,22.5*
%
%ADD10C,0.00039*%
%ADD11R,0.03150X0.04724*%
%ADD12C,0.03740*%
%ADD13R,0.03740X0.03740*%
%ADD14R,0.04724X0.03150*%
%ADD15C,0.03937*%
%ADD16OC8,0.04800*%
%ADD17R,0.09843X0.01969*%
%ADD18R,0.09843X0.07874*%
%ADD19R,0.05250X0.05250*%
%ADD20C,0.05250*%
%ADD21C,0.04500*%
%ADD22R,0.05709X0.01181*%
%ADD23R,0.02400X0.08700*%
%ADD24R,0.05500X0.01370*%
%ADD25R,0.01772X0.03937*%
%ADD26R,0.03937X0.01772*%
%ADD27C,0.03500*%
%ADD28C,0.04724*%
%ADD29C,0.06000*%
D10*
X0030978Y0001256D02*
X0030978Y0158736D01*
X0326339Y0158736D01*
X0326339Y0001256D01*
X0030978Y0001256D01*
D11*
X0101419Y0044780D03*
X0108505Y0044780D03*
X0113379Y0045909D03*
X0120466Y0045909D03*
X0110485Y0064740D03*
X0103399Y0064740D03*
X0099060Y0064969D03*
X0091974Y0064969D03*
X0206312Y0041528D03*
X0213399Y0041528D03*
X0254525Y0082559D03*
X0261611Y0082559D03*
X0275851Y0100801D03*
X0282937Y0100801D03*
X0301264Y0105187D03*
X0308351Y0105187D03*
X0311638Y0131687D03*
X0304552Y0131687D03*
X0073167Y0137831D03*
X0066080Y0137831D03*
D12*
X0146812Y0096902D03*
X0167796Y0096917D03*
X0188694Y0097496D03*
X0304241Y0142958D03*
X0308670Y0090962D03*
X0185277Y0027756D03*
X0160186Y0027587D03*
X0154655Y0027528D03*
X0106981Y0031354D03*
D13*
X0087296Y0031354D03*
X0134970Y0027528D03*
X0179871Y0027587D03*
X0204962Y0027756D03*
X0288985Y0090962D03*
X0284556Y0142958D03*
X0188694Y0117181D03*
X0167796Y0116602D03*
X0146812Y0116587D03*
D14*
X0163123Y0086335D03*
X0163123Y0079248D03*
X0164107Y0047240D03*
X0164107Y0040154D03*
X0072588Y0067662D03*
X0072588Y0074749D03*
D15*
X0088139Y0091213D03*
X0097981Y0091213D03*
X0107332Y0125760D03*
X0117174Y0125760D03*
D16*
X0255194Y0112555D03*
X0255194Y0092555D03*
X0313828Y0078311D03*
X0313828Y0068311D03*
X0247800Y0039398D03*
X0247800Y0019398D03*
D17*
X0063375Y0054331D03*
X0063375Y0057480D03*
X0063375Y0060630D03*
X0063375Y0063780D03*
X0063375Y0066929D03*
D18*
X0063375Y0078346D03*
X0041722Y0078346D03*
X0041722Y0042913D03*
X0063375Y0042913D03*
D19*
X0244627Y0052280D03*
D20*
X0244627Y0062280D03*
X0244627Y0072280D03*
X0244627Y0082280D03*
X0214627Y0082280D03*
X0214627Y0072280D03*
X0214627Y0062280D03*
X0214627Y0052280D03*
D21*
X0218828Y0038366D03*
X0227730Y0038780D03*
X0235147Y0039366D03*
X0252056Y0050350D03*
X0252056Y0059598D03*
X0252367Y0068087D03*
X0252367Y0076083D03*
X0272367Y0076083D03*
X0283619Y0077720D03*
X0272367Y0068087D03*
X0272056Y0059598D03*
X0272056Y0050350D03*
X0262060Y0039937D03*
X0262060Y0019937D03*
X0235147Y0019366D03*
X0227730Y0018780D03*
X0218828Y0018366D03*
X0181686Y0059268D03*
X0181596Y0067169D03*
X0181580Y0073732D03*
X0181580Y0080248D03*
X0201580Y0080248D03*
X0201580Y0073732D03*
X0201596Y0067169D03*
X0214899Y0089697D03*
X0229107Y0089626D03*
X0241422Y0090114D03*
X0241422Y0110114D03*
X0229107Y0109626D03*
X0214899Y0109697D03*
X0303619Y0077720D03*
X0161686Y0059268D03*
X0131155Y0039260D03*
X0111155Y0039260D03*
X0118615Y0062331D03*
X0118615Y0082331D03*
X0108123Y0097791D03*
X0098123Y0097791D03*
X0098123Y0117791D03*
X0108123Y0117791D03*
X0064745Y0033435D03*
X0064745Y0026171D03*
X0064745Y0019891D03*
X0044745Y0019891D03*
X0044745Y0026171D03*
X0044745Y0033435D03*
D22*
X0093202Y0050567D03*
X0093202Y0052535D03*
X0093202Y0054504D03*
X0093202Y0056472D03*
X0093202Y0058441D03*
X0110919Y0058441D03*
X0110919Y0056472D03*
X0110919Y0054504D03*
X0110919Y0052535D03*
X0110919Y0050567D03*
D23*
X0282327Y0106918D03*
X0287327Y0106918D03*
X0292327Y0106918D03*
X0297327Y0106918D03*
X0297327Y0127518D03*
X0292327Y0127518D03*
X0287327Y0127518D03*
X0282327Y0127518D03*
D24*
X0155017Y0079425D03*
X0155017Y0076866D03*
X0155017Y0074307D03*
X0155017Y0071748D03*
X0155017Y0069189D03*
X0155017Y0066630D03*
X0155017Y0064071D03*
X0155017Y0061512D03*
X0155017Y0058953D03*
X0155017Y0056394D03*
X0155017Y0053835D03*
X0155017Y0051276D03*
X0155017Y0048717D03*
X0155017Y0046157D03*
X0126230Y0046157D03*
X0126230Y0048717D03*
X0126230Y0051276D03*
X0126230Y0053835D03*
X0126230Y0056394D03*
X0126230Y0058953D03*
X0126230Y0061512D03*
X0126230Y0064071D03*
X0126230Y0066630D03*
X0126230Y0069189D03*
X0126230Y0071748D03*
X0126230Y0074307D03*
X0126230Y0076866D03*
X0126230Y0079425D03*
D25*
X0081647Y0093953D03*
X0078497Y0093953D03*
X0075348Y0093953D03*
X0072198Y0093953D03*
X0069048Y0093953D03*
X0065899Y0093953D03*
X0062749Y0093953D03*
X0059600Y0093953D03*
X0059600Y0126630D03*
X0062749Y0126630D03*
X0065899Y0126630D03*
X0069048Y0126630D03*
X0072198Y0126630D03*
X0075348Y0126630D03*
X0078497Y0126630D03*
X0081647Y0126630D03*
D26*
X0086962Y0121315D03*
X0086962Y0118165D03*
X0086962Y0115016D03*
X0086962Y0111866D03*
X0086962Y0108717D03*
X0086962Y0105567D03*
X0086962Y0102417D03*
X0086962Y0099268D03*
X0054285Y0099268D03*
X0054285Y0102417D03*
X0054285Y0105567D03*
X0054285Y0108717D03*
X0054285Y0111866D03*
X0054285Y0115016D03*
X0054285Y0118165D03*
X0054285Y0121315D03*
D27*
X0125623Y0115291D03*
X0125623Y0096091D03*
D28*
X0288009Y0059862D03*
X0288009Y0050020D03*
X0307694Y0040177D03*
X0288009Y0030335D03*
X0288009Y0020492D03*
D29*
X0304906Y0116994D02*
X0304906Y0122994D01*
X0314906Y0122994D02*
X0314906Y0116994D01*
X0109481Y0083980D02*
X0109481Y0077980D01*
X0099481Y0077980D02*
X0099481Y0083980D01*
M02*
