G75*
%MOIN*%
%OFA0B0*%
%FSLAX25Y25*%
%IPPOS*%
%LPD*%
%AMOC8*
5,1,8,0,0,1.08239X$1,22.5*
%
%ADD10C,0.00039*%
%ADD11C,0.00512*%
%ADD12C,0.00100*%
%ADD13C,0.03740*%
%ADD14R,0.03740X0.03740*%
%ADD15C,0.03937*%
%ADD16OC8,0.04800*%
%ADD17R,0.05250X0.05250*%
%ADD18C,0.05250*%
%ADD19C,0.04500*%
%ADD20C,0.03500*%
%ADD21C,0.04724*%
%ADD22C,0.06000*%
%ADD23C,0.03562*%
%ADD24C,0.02000*%
%ADD25C,0.01600*%
%ADD26C,0.01575*%
D10*
X0030978Y0001256D02*
X0030978Y0158736D01*
X0326339Y0158736D01*
X0326339Y0001256D01*
X0030978Y0001256D01*
D11*
X0004285Y0001256D01*
X0011962Y0001512D02*
X0012985Y0011492D01*
X0013219Y0011492D02*
X0011962Y0001512D01*
X0010938Y0011492D01*
X0010705Y0011492D02*
X0013219Y0011492D01*
X0012474Y0011492D02*
X0011962Y0001512D01*
X0011450Y0011492D01*
X0010705Y0011492D02*
X0011962Y0001512D01*
X0011962Y0158480D01*
X0012985Y0148500D01*
X0013219Y0148500D02*
X0011962Y0158480D01*
X0010938Y0148500D01*
X0010705Y0148500D02*
X0013219Y0148500D01*
X0012474Y0148500D02*
X0011962Y0158480D01*
X0011450Y0148500D01*
X0010705Y0148500D02*
X0011962Y0158480D01*
X0004285Y0158736D02*
X0030978Y0158736D01*
X0030978Y0177219D01*
X0031234Y0169542D02*
X0041215Y0170799D01*
X0041215Y0168285D01*
X0031234Y0169542D01*
X0041215Y0168518D01*
X0041215Y0169030D02*
X0031234Y0169542D01*
X0041215Y0170565D01*
X0041215Y0170054D02*
X0031234Y0169542D01*
X0326083Y0169542D01*
X0316103Y0168518D01*
X0316103Y0168285D02*
X0326083Y0169542D01*
X0316103Y0170565D01*
X0316103Y0170799D02*
X0316103Y0168285D01*
X0316103Y0169030D02*
X0326083Y0169542D01*
X0316103Y0170054D01*
X0316103Y0170799D02*
X0326083Y0169542D01*
X0326339Y0177219D02*
X0326339Y0158736D01*
D12*
X0192561Y0171754D02*
X0188224Y0171754D01*
X0192561Y0176091D01*
X0192561Y0177175D01*
X0191477Y0178259D01*
X0189308Y0178259D01*
X0188224Y0177175D01*
X0186484Y0177175D02*
X0185400Y0178259D01*
X0183231Y0178259D01*
X0182147Y0177175D01*
X0182147Y0172838D01*
X0186484Y0177175D01*
X0186484Y0172838D01*
X0185400Y0171754D01*
X0183231Y0171754D01*
X0182147Y0172838D01*
X0180193Y0172838D02*
X0180193Y0171754D01*
X0179108Y0171754D01*
X0179108Y0172838D01*
X0180193Y0172838D01*
X0177368Y0172838D02*
X0176284Y0171754D01*
X0174115Y0171754D01*
X0173031Y0172838D01*
X0173031Y0175006D02*
X0175200Y0176091D01*
X0176284Y0176091D01*
X0177368Y0175006D01*
X0177368Y0172838D01*
X0173031Y0175006D02*
X0173031Y0178259D01*
X0177368Y0178259D01*
X0171291Y0178259D02*
X0171291Y0177175D01*
X0166954Y0172838D01*
X0166954Y0171754D01*
X0166954Y0178259D02*
X0171291Y0178259D01*
X0009750Y0092814D02*
X0009750Y0090646D01*
X0008666Y0089561D01*
X0004329Y0093899D01*
X0008666Y0093899D01*
X0009750Y0092814D01*
X0004329Y0093899D02*
X0003244Y0092814D01*
X0003244Y0090646D01*
X0004329Y0089561D01*
X0008666Y0089561D01*
X0008666Y0087821D02*
X0004329Y0087821D01*
X0008666Y0083484D01*
X0009750Y0084569D01*
X0009750Y0086737D01*
X0008666Y0087821D01*
X0004329Y0087821D02*
X0003244Y0086737D01*
X0003244Y0084569D01*
X0004329Y0083484D01*
X0008666Y0083484D01*
X0008666Y0081530D02*
X0009750Y0081530D01*
X0009750Y0080446D01*
X0008666Y0080446D01*
X0008666Y0081530D01*
X0008666Y0078706D02*
X0004329Y0078706D01*
X0008666Y0074369D01*
X0009750Y0075453D01*
X0009750Y0077621D01*
X0008666Y0078706D01*
X0004329Y0078706D02*
X0003244Y0077621D01*
X0003244Y0075453D01*
X0004329Y0074369D01*
X0008666Y0074369D01*
X0006497Y0072628D02*
X0006497Y0068291D01*
X0003244Y0071544D01*
X0009750Y0071544D01*
D13*
X0106981Y0031354D03*
X0154655Y0027528D03*
X0160186Y0027587D03*
X0185277Y0027756D03*
X0308670Y0090962D03*
X0304241Y0142958D03*
X0188694Y0097496D03*
X0167796Y0096917D03*
X0146812Y0096902D03*
D14*
X0146812Y0116587D03*
X0167796Y0116602D03*
X0188694Y0117181D03*
X0284556Y0142958D03*
X0288985Y0090962D03*
X0204962Y0027756D03*
X0179871Y0027587D03*
X0134970Y0027528D03*
X0087296Y0031354D03*
D15*
X0088139Y0091213D03*
X0097981Y0091213D03*
X0107332Y0125760D03*
X0117174Y0125760D03*
D16*
X0255194Y0112555D03*
X0255194Y0092555D03*
X0313828Y0078311D03*
X0313828Y0068311D03*
X0247800Y0039398D03*
X0247800Y0019398D03*
D17*
X0244627Y0052280D03*
D18*
X0244627Y0062280D03*
X0244627Y0072280D03*
X0244627Y0082280D03*
X0214627Y0082280D03*
X0214627Y0072280D03*
X0214627Y0062280D03*
X0214627Y0052280D03*
D19*
X0218828Y0038366D03*
X0227730Y0038780D03*
X0235147Y0039366D03*
X0252056Y0050350D03*
X0252056Y0059598D03*
X0252367Y0068087D03*
X0252367Y0076083D03*
X0272367Y0076083D03*
X0283619Y0077720D03*
X0272367Y0068087D03*
X0272056Y0059598D03*
X0272056Y0050350D03*
X0262060Y0039937D03*
X0262060Y0019937D03*
X0235147Y0019366D03*
X0227730Y0018780D03*
X0218828Y0018366D03*
X0181686Y0059268D03*
X0181596Y0067169D03*
X0181580Y0073732D03*
X0181580Y0080248D03*
X0201580Y0080248D03*
X0201580Y0073732D03*
X0201596Y0067169D03*
X0214899Y0089697D03*
X0229107Y0089626D03*
X0241422Y0090114D03*
X0241422Y0110114D03*
X0229107Y0109626D03*
X0214899Y0109697D03*
X0303619Y0077720D03*
X0161686Y0059268D03*
X0131155Y0039260D03*
X0111155Y0039260D03*
X0118615Y0062331D03*
X0118615Y0082331D03*
X0108123Y0097791D03*
X0098123Y0097791D03*
X0098123Y0117791D03*
X0108123Y0117791D03*
X0064745Y0033435D03*
X0064745Y0026171D03*
X0064745Y0019891D03*
X0044745Y0019891D03*
X0044745Y0026171D03*
X0044745Y0033435D03*
D20*
X0125623Y0096091D03*
X0125623Y0115291D03*
D21*
X0288009Y0059862D03*
X0288009Y0050020D03*
X0307694Y0040177D03*
X0288009Y0030335D03*
X0288009Y0020492D03*
D22*
X0304906Y0116994D02*
X0304906Y0122994D01*
X0314906Y0122994D02*
X0314906Y0116994D01*
X0109481Y0083980D02*
X0109481Y0077980D01*
X0099481Y0077980D02*
X0099481Y0083980D01*
D23*
X0127119Y0084917D03*
X0071017Y0054406D03*
X0120230Y0041610D03*
X0117769Y0029307D03*
X0172395Y0046531D03*
X0209796Y0047516D03*
X0190111Y0085902D03*
X0271804Y0111492D03*
X0271804Y0118874D03*
X0271804Y0125764D03*
X0087442Y0135287D03*
X0087442Y0143319D03*
X0072985Y0141020D03*
X0051824Y0126256D03*
X0294434Y0010390D03*
X0304513Y0010390D03*
X0314592Y0010390D03*
D24*
X0087442Y0135287D02*
X0087442Y0143319D01*
D25*
X0084261Y0143229D02*
X0035584Y0143229D01*
X0035584Y0144827D02*
X0084624Y0144827D01*
X0084745Y0145121D02*
X0084261Y0143952D01*
X0084261Y0142686D01*
X0084745Y0141517D01*
X0085042Y0141220D01*
X0085042Y0137386D01*
X0084745Y0137089D01*
X0084261Y0135920D01*
X0084261Y0134655D01*
X0084745Y0133485D01*
X0085640Y0132591D01*
X0086809Y0132106D01*
X0088075Y0132106D01*
X0089244Y0132591D01*
X0090139Y0133485D01*
X0090623Y0134655D01*
X0090623Y0135920D01*
X0090139Y0137089D01*
X0089842Y0137386D01*
X0089842Y0141220D01*
X0090139Y0141517D01*
X0090623Y0142686D01*
X0090623Y0143952D01*
X0090139Y0145121D01*
X0089244Y0146016D01*
X0088075Y0146500D01*
X0086809Y0146500D01*
X0085640Y0146016D01*
X0084745Y0145121D01*
X0086630Y0146426D02*
X0035584Y0146426D01*
X0035584Y0148024D02*
X0323333Y0148024D01*
X0323333Y0146426D02*
X0088254Y0146426D01*
X0090260Y0144827D02*
X0281285Y0144827D01*
X0281285Y0145408D02*
X0282106Y0146228D01*
X0287005Y0146228D01*
X0287826Y0145408D01*
X0287826Y0140508D01*
X0287005Y0139688D01*
X0282106Y0139688D01*
X0281285Y0140508D01*
X0281285Y0145408D01*
X0287826Y0144827D02*
X0301485Y0144827D01*
X0301468Y0144811D02*
X0300970Y0143609D01*
X0300970Y0142308D01*
X0301468Y0141106D01*
X0302388Y0140186D01*
X0303590Y0139688D01*
X0304891Y0139688D01*
X0306093Y0140186D01*
X0307013Y0141106D01*
X0307511Y0142308D01*
X0307511Y0143609D01*
X0307013Y0144811D01*
X0306093Y0145730D01*
X0304891Y0146228D01*
X0303590Y0146228D01*
X0302388Y0145730D01*
X0301468Y0144811D01*
X0300970Y0143229D02*
X0287826Y0143229D01*
X0287826Y0141630D02*
X0301251Y0141630D01*
X0302760Y0140032D02*
X0287349Y0140032D01*
X0281762Y0140032D02*
X0089842Y0140032D01*
X0089842Y0138433D02*
X0323333Y0138433D01*
X0323333Y0136835D02*
X0090244Y0136835D01*
X0090623Y0135236D02*
X0323333Y0135236D01*
X0323333Y0133638D02*
X0090202Y0133638D01*
X0084682Y0133638D02*
X0035584Y0133638D01*
X0035584Y0135236D02*
X0084261Y0135236D01*
X0084640Y0136835D02*
X0035584Y0136835D01*
X0035584Y0138433D02*
X0085042Y0138433D01*
X0085042Y0140032D02*
X0035584Y0140032D01*
X0035584Y0141630D02*
X0084698Y0141630D01*
X0090186Y0141630D02*
X0281285Y0141630D01*
X0281285Y0143229D02*
X0090623Y0143229D01*
X0104930Y0128687D02*
X0105547Y0129099D01*
X0106233Y0129384D01*
X0106961Y0129528D01*
X0107332Y0129528D01*
X0107703Y0129528D01*
X0108431Y0129384D01*
X0109117Y0129099D01*
X0109734Y0128687D01*
X0110259Y0128162D01*
X0110671Y0127545D01*
X0110956Y0126859D01*
X0111100Y0126131D01*
X0111100Y0125760D01*
X0107332Y0125760D01*
X0107332Y0125760D01*
X0107332Y0129528D01*
X0107332Y0125760D01*
X0107332Y0125760D01*
X0111100Y0125760D01*
X0111100Y0125389D01*
X0110956Y0124661D01*
X0110671Y0123975D01*
X0110259Y0123358D01*
X0109734Y0122833D01*
X0109117Y0122420D01*
X0108431Y0122136D01*
X0107703Y0121991D01*
X0107332Y0121991D01*
X0107332Y0125760D01*
X0107332Y0125760D01*
X0103563Y0125760D01*
X0103563Y0126131D01*
X0103708Y0126859D01*
X0103992Y0127545D01*
X0104405Y0128162D01*
X0104930Y0128687D01*
X0105162Y0128842D02*
X0035584Y0128842D01*
X0035584Y0127244D02*
X0103868Y0127244D01*
X0103563Y0125760D02*
X0103563Y0125389D01*
X0103708Y0124661D01*
X0103992Y0123975D01*
X0104405Y0123358D01*
X0104930Y0122833D01*
X0105547Y0122420D01*
X0106233Y0122136D01*
X0106961Y0121991D01*
X0107332Y0121991D01*
X0107332Y0125760D01*
X0107332Y0125760D01*
X0103563Y0125760D01*
X0103563Y0125645D02*
X0035584Y0125645D01*
X0035584Y0124047D02*
X0103962Y0124047D01*
X0105505Y0122448D02*
X0035584Y0122448D01*
X0035584Y0120850D02*
X0096020Y0120850D01*
X0096056Y0120886D02*
X0095029Y0119859D01*
X0094473Y0118517D01*
X0094473Y0117065D01*
X0095029Y0115724D01*
X0096056Y0114697D01*
X0097397Y0114141D01*
X0098849Y0114141D01*
X0100191Y0114697D01*
X0101218Y0115724D01*
X0101773Y0117065D01*
X0101773Y0118517D01*
X0101218Y0119859D01*
X0100191Y0120886D01*
X0098849Y0121441D01*
X0097397Y0121441D01*
X0096056Y0120886D01*
X0094777Y0119251D02*
X0035584Y0119251D01*
X0035584Y0117653D02*
X0094473Y0117653D01*
X0094892Y0116054D02*
X0035584Y0116054D01*
X0035584Y0114456D02*
X0096638Y0114456D01*
X0099608Y0114456D02*
X0106638Y0114456D01*
X0106056Y0114697D02*
X0107397Y0114141D01*
X0108849Y0114141D01*
X0110191Y0114697D01*
X0111218Y0115724D01*
X0111773Y0117065D01*
X0111773Y0118517D01*
X0111218Y0119859D01*
X0110191Y0120886D01*
X0108849Y0121441D01*
X0107397Y0121441D01*
X0106056Y0120886D01*
X0105029Y0119859D01*
X0104473Y0118517D01*
X0104473Y0117065D01*
X0105029Y0115724D01*
X0106056Y0114697D01*
X0104892Y0116054D02*
X0101354Y0116054D01*
X0101773Y0117653D02*
X0104473Y0117653D01*
X0104777Y0119251D02*
X0101469Y0119251D01*
X0100227Y0120850D02*
X0106020Y0120850D01*
X0107332Y0122448D02*
X0107332Y0122448D01*
X0107332Y0124047D02*
X0107332Y0124047D01*
X0107332Y0125645D02*
X0107332Y0125645D01*
X0107332Y0127244D02*
X0107332Y0127244D01*
X0107332Y0128842D02*
X0107332Y0128842D01*
X0109502Y0128842D02*
X0115814Y0128842D01*
X0115266Y0128616D02*
X0114319Y0127668D01*
X0113806Y0126430D01*
X0113806Y0125090D01*
X0114319Y0123852D01*
X0115266Y0122904D01*
X0116504Y0122391D01*
X0117844Y0122391D01*
X0119083Y0122904D01*
X0120030Y0123852D01*
X0120543Y0125090D01*
X0120543Y0126430D01*
X0120030Y0127668D01*
X0119083Y0128616D01*
X0117844Y0129128D01*
X0116504Y0129128D01*
X0115266Y0128616D01*
X0114143Y0127244D02*
X0110796Y0127244D01*
X0111100Y0125645D02*
X0113806Y0125645D01*
X0114238Y0124047D02*
X0110701Y0124047D01*
X0109159Y0122448D02*
X0116367Y0122448D01*
X0117982Y0122448D02*
X0300506Y0122448D01*
X0300506Y0123869D02*
X0300506Y0116118D01*
X0301176Y0114501D01*
X0302413Y0113264D01*
X0304031Y0112594D01*
X0305781Y0112594D01*
X0307398Y0113264D01*
X0308636Y0114501D01*
X0309306Y0116118D01*
X0309306Y0123869D01*
X0308636Y0125486D01*
X0307398Y0126724D01*
X0305781Y0127394D01*
X0304031Y0127394D01*
X0302413Y0126724D01*
X0301176Y0125486D01*
X0300506Y0123869D01*
X0300580Y0124047D02*
X0274536Y0124047D01*
X0274501Y0123962D02*
X0274985Y0125131D01*
X0274985Y0126397D01*
X0274501Y0127566D01*
X0273606Y0128461D01*
X0272437Y0128945D01*
X0271172Y0128945D01*
X0270002Y0128461D01*
X0269108Y0127566D01*
X0268623Y0126397D01*
X0268623Y0125131D01*
X0269108Y0123962D01*
X0270002Y0123067D01*
X0271172Y0122583D01*
X0272437Y0122583D01*
X0273606Y0123067D01*
X0274501Y0123962D01*
X0274985Y0125645D02*
X0301335Y0125645D01*
X0303669Y0127244D02*
X0274635Y0127244D01*
X0272685Y0128842D02*
X0323333Y0128842D01*
X0323333Y0127244D02*
X0316143Y0127244D01*
X0315781Y0127394D02*
X0314031Y0127394D01*
X0312413Y0126724D01*
X0311176Y0125486D01*
X0310506Y0123869D01*
X0310506Y0116118D01*
X0311176Y0114501D01*
X0312413Y0113264D01*
X0314031Y0112594D01*
X0315781Y0112594D01*
X0317398Y0113264D01*
X0318636Y0114501D01*
X0319306Y0116118D01*
X0319306Y0123869D01*
X0318636Y0125486D01*
X0317398Y0126724D01*
X0315781Y0127394D01*
X0313669Y0127244D02*
X0306143Y0127244D01*
X0308477Y0125645D02*
X0311335Y0125645D01*
X0310580Y0124047D02*
X0309232Y0124047D01*
X0309306Y0122448D02*
X0310506Y0122448D01*
X0310506Y0120850D02*
X0309306Y0120850D01*
X0309306Y0119251D02*
X0310506Y0119251D01*
X0310506Y0117653D02*
X0309306Y0117653D01*
X0309279Y0116054D02*
X0310533Y0116054D01*
X0311221Y0114456D02*
X0308590Y0114456D01*
X0306417Y0112857D02*
X0313395Y0112857D01*
X0316417Y0112857D02*
X0323333Y0112857D01*
X0323333Y0111259D02*
X0274985Y0111259D01*
X0274985Y0110859D02*
X0274501Y0109690D01*
X0273606Y0108795D01*
X0272437Y0108311D01*
X0271172Y0108311D01*
X0270002Y0108795D01*
X0269108Y0109690D01*
X0268623Y0110859D01*
X0268623Y0112125D01*
X0269108Y0113294D01*
X0270002Y0114189D01*
X0271172Y0114673D01*
X0272437Y0114673D01*
X0273606Y0114189D01*
X0274501Y0113294D01*
X0274985Y0112125D01*
X0274985Y0110859D01*
X0274471Y0109660D02*
X0323333Y0109660D01*
X0323333Y0108062D02*
X0244523Y0108062D01*
X0244517Y0108047D02*
X0245072Y0109388D01*
X0245072Y0110840D01*
X0244517Y0112182D01*
X0243490Y0113208D01*
X0242148Y0113764D01*
X0240696Y0113764D01*
X0239355Y0113208D01*
X0238328Y0112182D01*
X0237772Y0110840D01*
X0237772Y0109388D01*
X0238328Y0108047D01*
X0239355Y0107020D01*
X0240696Y0106464D01*
X0242148Y0106464D01*
X0243490Y0107020D01*
X0244517Y0108047D01*
X0245072Y0109660D02*
X0252715Y0109660D01*
X0253620Y0108755D02*
X0256768Y0108755D01*
X0258994Y0110981D01*
X0258994Y0114129D01*
X0256768Y0116355D01*
X0253620Y0116355D01*
X0251394Y0114129D01*
X0251394Y0110981D01*
X0253620Y0108755D01*
X0257673Y0109660D02*
X0269138Y0109660D01*
X0268623Y0111259D02*
X0258994Y0111259D01*
X0258994Y0112857D02*
X0268927Y0112857D01*
X0270646Y0114456D02*
X0258668Y0114456D01*
X0257069Y0116054D02*
X0300533Y0116054D01*
X0300506Y0117653D02*
X0192364Y0117653D01*
X0192364Y0117181D02*
X0192364Y0119288D01*
X0192241Y0119746D01*
X0192005Y0120156D01*
X0191669Y0120492D01*
X0191259Y0120729D01*
X0190801Y0120851D01*
X0188694Y0120851D01*
X0186587Y0120851D01*
X0186129Y0120729D01*
X0185719Y0120492D01*
X0185384Y0120156D01*
X0185147Y0119746D01*
X0185024Y0119288D01*
X0185024Y0117181D01*
X0185024Y0115074D01*
X0185147Y0114616D01*
X0185384Y0114206D01*
X0185719Y0113871D01*
X0186129Y0113634D01*
X0186587Y0113511D01*
X0188694Y0113511D01*
X0188694Y0117181D01*
X0188694Y0117181D01*
X0185024Y0117181D01*
X0188694Y0117181D01*
X0188694Y0117181D01*
X0188694Y0113511D01*
X0190801Y0113511D01*
X0191259Y0113634D01*
X0191669Y0113871D01*
X0192005Y0114206D01*
X0192241Y0114616D01*
X0192364Y0115074D01*
X0192364Y0117181D01*
X0188694Y0117181D01*
X0188694Y0120851D01*
X0188694Y0117181D01*
X0188694Y0117181D01*
X0188694Y0117181D01*
X0192364Y0117181D01*
X0192364Y0116054D02*
X0253319Y0116054D01*
X0251721Y0114456D02*
X0192149Y0114456D01*
X0188694Y0114456D02*
X0188694Y0114456D01*
X0188694Y0116054D02*
X0188694Y0116054D01*
X0188694Y0117653D02*
X0188694Y0117653D01*
X0188694Y0119251D02*
X0188694Y0119251D01*
X0188694Y0120850D02*
X0188694Y0120850D01*
X0186582Y0120850D02*
X0110227Y0120850D01*
X0111469Y0119251D02*
X0143322Y0119251D01*
X0143265Y0119151D02*
X0143142Y0118694D01*
X0143142Y0116587D01*
X0146812Y0116587D01*
X0146812Y0120257D01*
X0144705Y0120257D01*
X0144247Y0120134D01*
X0143837Y0119897D01*
X0143502Y0119562D01*
X0143265Y0119151D01*
X0143142Y0117653D02*
X0127717Y0117653D01*
X0127408Y0117962D02*
X0126250Y0118441D01*
X0124997Y0118441D01*
X0123839Y0117962D01*
X0122953Y0117076D01*
X0122473Y0115918D01*
X0122473Y0114665D01*
X0122953Y0113507D01*
X0123839Y0112621D01*
X0124997Y0112141D01*
X0126250Y0112141D01*
X0127408Y0112621D01*
X0128294Y0113507D01*
X0128773Y0114665D01*
X0128773Y0115918D01*
X0128294Y0117076D01*
X0127408Y0117962D01*
X0128717Y0116054D02*
X0143142Y0116054D01*
X0143142Y0116587D02*
X0143142Y0114480D01*
X0143265Y0114022D01*
X0143502Y0113611D01*
X0143837Y0113276D01*
X0144247Y0113039D01*
X0144705Y0112917D01*
X0146812Y0112917D01*
X0146812Y0116586D01*
X0146812Y0116586D01*
X0146812Y0112917D01*
X0148919Y0112917D01*
X0149377Y0113039D01*
X0149788Y0113276D01*
X0150123Y0113611D01*
X0150360Y0114022D01*
X0150482Y0114480D01*
X0150482Y0116587D01*
X0150482Y0118694D01*
X0150360Y0119151D01*
X0150123Y0119562D01*
X0149788Y0119897D01*
X0149377Y0120134D01*
X0148919Y0120257D01*
X0146812Y0120257D01*
X0146812Y0116587D01*
X0146812Y0116587D01*
X0146812Y0116587D01*
X0143142Y0116587D01*
X0143149Y0114456D02*
X0128687Y0114456D01*
X0127644Y0112857D02*
X0212339Y0112857D01*
X0212317Y0112843D02*
X0211753Y0112279D01*
X0211310Y0111615D01*
X0211004Y0110878D01*
X0210849Y0110096D01*
X0210849Y0109697D01*
X0214899Y0109697D01*
X0218949Y0109697D01*
X0218949Y0110096D01*
X0218793Y0110878D01*
X0218488Y0111615D01*
X0218045Y0112279D01*
X0217481Y0112843D01*
X0216817Y0113286D01*
X0216080Y0113591D01*
X0215298Y0113747D01*
X0214899Y0113747D01*
X0214899Y0109697D01*
X0214899Y0109697D01*
X0214899Y0109697D01*
X0218949Y0109697D01*
X0218949Y0109298D01*
X0218793Y0108516D01*
X0218488Y0107778D01*
X0218045Y0107115D01*
X0217481Y0106551D01*
X0216817Y0106108D01*
X0216080Y0105802D01*
X0215298Y0105647D01*
X0214899Y0105647D01*
X0214899Y0109697D01*
X0214899Y0113747D01*
X0214500Y0113747D01*
X0213717Y0113591D01*
X0212980Y0113286D01*
X0212317Y0112843D01*
X0211162Y0111259D02*
X0035584Y0111259D01*
X0035584Y0112857D02*
X0123603Y0112857D01*
X0122560Y0114456D02*
X0109608Y0114456D01*
X0111354Y0116054D02*
X0122530Y0116054D01*
X0123530Y0117653D02*
X0111773Y0117653D01*
X0120111Y0124047D02*
X0269072Y0124047D01*
X0268623Y0125645D02*
X0120543Y0125645D01*
X0120206Y0127244D02*
X0268974Y0127244D01*
X0270924Y0128842D02*
X0118535Y0128842D01*
X0146812Y0119251D02*
X0146812Y0119251D01*
X0146812Y0117653D02*
X0146812Y0117653D01*
X0146812Y0116587D02*
X0150482Y0116587D01*
X0146812Y0116587D01*
X0146812Y0116587D01*
X0146812Y0116054D02*
X0146812Y0116054D01*
X0146812Y0114456D02*
X0146812Y0114456D01*
X0150476Y0114456D02*
X0164137Y0114456D01*
X0164126Y0114495D02*
X0164249Y0114037D01*
X0164486Y0113627D01*
X0164821Y0113292D01*
X0165232Y0113055D01*
X0165689Y0112932D01*
X0167796Y0112932D01*
X0167796Y0116602D01*
X0164126Y0116602D01*
X0164126Y0114495D01*
X0164126Y0116054D02*
X0150482Y0116054D01*
X0150482Y0117653D02*
X0164126Y0117653D01*
X0164126Y0116602D02*
X0164126Y0118709D01*
X0164249Y0119167D01*
X0164486Y0119578D01*
X0164821Y0119913D01*
X0165232Y0120150D01*
X0165689Y0120272D01*
X0167796Y0120272D01*
X0167796Y0116602D01*
X0167796Y0116602D01*
X0167797Y0116602D01*
X0167797Y0116602D01*
X0171467Y0116602D01*
X0171467Y0114495D01*
X0171344Y0114037D01*
X0171107Y0113627D01*
X0170772Y0113292D01*
X0170361Y0113055D01*
X0169904Y0112932D01*
X0167797Y0112932D01*
X0167797Y0116602D01*
X0171467Y0116602D01*
X0171467Y0118709D01*
X0171344Y0119167D01*
X0171107Y0119578D01*
X0170772Y0119913D01*
X0170361Y0120150D01*
X0169904Y0120272D01*
X0167797Y0120272D01*
X0167797Y0116602D01*
X0167796Y0116602D01*
X0164126Y0116602D01*
X0164298Y0119251D02*
X0150302Y0119251D01*
X0167796Y0119251D02*
X0167797Y0119251D01*
X0167796Y0117653D02*
X0167797Y0117653D01*
X0167796Y0116054D02*
X0167797Y0116054D01*
X0167796Y0114456D02*
X0167797Y0114456D01*
X0171456Y0114456D02*
X0185239Y0114456D01*
X0185024Y0116054D02*
X0171467Y0116054D01*
X0171467Y0117653D02*
X0185024Y0117653D01*
X0185024Y0119251D02*
X0171295Y0119251D01*
X0190807Y0120850D02*
X0300506Y0120850D01*
X0300506Y0119251D02*
X0192364Y0119251D01*
X0210849Y0109697D02*
X0210849Y0109298D01*
X0211004Y0108516D01*
X0211310Y0107778D01*
X0211753Y0107115D01*
X0212317Y0106551D01*
X0212980Y0106108D01*
X0213717Y0105802D01*
X0214500Y0105647D01*
X0214899Y0105647D01*
X0214899Y0109697D01*
X0214899Y0109697D01*
X0214899Y0109697D01*
X0210849Y0109697D01*
X0210849Y0109660D02*
X0035584Y0109660D01*
X0035584Y0108062D02*
X0211192Y0108062D01*
X0212449Y0106463D02*
X0035584Y0106463D01*
X0035584Y0104865D02*
X0323333Y0104865D01*
X0323333Y0106463D02*
X0231009Y0106463D01*
X0231175Y0106532D02*
X0232202Y0107558D01*
X0232757Y0108900D01*
X0232757Y0110352D01*
X0232202Y0111694D01*
X0231175Y0112720D01*
X0229834Y0113276D01*
X0228381Y0113276D01*
X0227040Y0112720D01*
X0226013Y0111694D01*
X0225457Y0110352D01*
X0225457Y0108900D01*
X0226013Y0107558D01*
X0227040Y0106532D01*
X0228381Y0105976D01*
X0229834Y0105976D01*
X0231175Y0106532D01*
X0232410Y0108062D02*
X0238322Y0108062D01*
X0237772Y0109660D02*
X0232757Y0109660D01*
X0232382Y0111259D02*
X0237946Y0111259D01*
X0239004Y0112857D02*
X0230845Y0112857D01*
X0227370Y0112857D02*
X0217459Y0112857D01*
X0218636Y0111259D02*
X0225833Y0111259D01*
X0225457Y0109660D02*
X0218949Y0109660D01*
X0218605Y0108062D02*
X0225805Y0108062D01*
X0227205Y0106463D02*
X0217349Y0106463D01*
X0214899Y0106463D02*
X0214899Y0106463D01*
X0214899Y0108062D02*
X0214899Y0108062D01*
X0214899Y0109660D02*
X0214899Y0109660D01*
X0214899Y0111259D02*
X0214899Y0111259D01*
X0214899Y0112857D02*
X0214899Y0112857D01*
X0191466Y0099348D02*
X0190546Y0100268D01*
X0189345Y0100766D01*
X0188044Y0100766D01*
X0186842Y0100268D01*
X0185922Y0099348D01*
X0185424Y0098147D01*
X0185424Y0096846D01*
X0185922Y0095644D01*
X0186842Y0094724D01*
X0188044Y0094226D01*
X0189345Y0094226D01*
X0190546Y0094724D01*
X0191466Y0095644D01*
X0191964Y0096846D01*
X0191964Y0098147D01*
X0191466Y0099348D01*
X0191830Y0098471D02*
X0323333Y0098471D01*
X0323333Y0100069D02*
X0190746Y0100069D01*
X0186642Y0100069D02*
X0168733Y0100069D01*
X0168447Y0100187D02*
X0167146Y0100187D01*
X0165944Y0099690D01*
X0165024Y0098770D01*
X0164526Y0097568D01*
X0164526Y0096267D01*
X0165024Y0095065D01*
X0165944Y0094145D01*
X0167146Y0093647D01*
X0168447Y0093647D01*
X0169649Y0094145D01*
X0170569Y0095065D01*
X0171067Y0096267D01*
X0171067Y0097568D01*
X0170569Y0098770D01*
X0169649Y0099690D01*
X0168447Y0100187D01*
X0166860Y0100069D02*
X0147710Y0100069D01*
X0147463Y0100172D02*
X0146162Y0100172D01*
X0144960Y0099674D01*
X0144040Y0098754D01*
X0143542Y0097552D01*
X0143542Y0096251D01*
X0144040Y0095049D01*
X0144960Y0094129D01*
X0146162Y0093631D01*
X0147463Y0093631D01*
X0148665Y0094129D01*
X0149584Y0095049D01*
X0150082Y0096251D01*
X0150082Y0097552D01*
X0149584Y0098754D01*
X0148665Y0099674D01*
X0147463Y0100172D01*
X0145914Y0100069D02*
X0111007Y0100069D01*
X0111218Y0099859D02*
X0110191Y0100886D01*
X0108849Y0101441D01*
X0107397Y0101441D01*
X0106056Y0100886D01*
X0105029Y0099859D01*
X0104473Y0098517D01*
X0104473Y0097065D01*
X0105029Y0095724D01*
X0106056Y0094697D01*
X0107397Y0094141D01*
X0108849Y0094141D01*
X0110191Y0094697D01*
X0111218Y0095724D01*
X0111773Y0097065D01*
X0111773Y0098517D01*
X0111218Y0099859D01*
X0111773Y0098471D02*
X0123548Y0098471D01*
X0123839Y0098762D02*
X0122953Y0097876D01*
X0122473Y0096718D01*
X0122473Y0095465D01*
X0122953Y0094307D01*
X0123839Y0093421D01*
X0124997Y0092941D01*
X0126250Y0092941D01*
X0127408Y0093421D01*
X0128294Y0094307D01*
X0128773Y0095465D01*
X0128773Y0096718D01*
X0128294Y0097876D01*
X0127408Y0098762D01*
X0126250Y0099241D01*
X0124997Y0099241D01*
X0123839Y0098762D01*
X0122537Y0096872D02*
X0111693Y0096872D01*
X0110767Y0095274D02*
X0122552Y0095274D01*
X0123585Y0093675D02*
X0100283Y0093675D01*
X0099890Y0094068D02*
X0099281Y0094320D01*
X0100191Y0094697D01*
X0101218Y0095724D01*
X0101773Y0097065D01*
X0101773Y0098517D01*
X0101218Y0099859D01*
X0100191Y0100886D01*
X0098849Y0101441D01*
X0097397Y0101441D01*
X0096056Y0100886D01*
X0095029Y0099859D01*
X0094473Y0098517D01*
X0094473Y0097065D01*
X0095029Y0095724D01*
X0096056Y0094697D01*
X0096823Y0094379D01*
X0096073Y0094068D01*
X0095126Y0093121D01*
X0094613Y0091883D01*
X0094613Y0090543D01*
X0095126Y0089304D01*
X0096073Y0088357D01*
X0096880Y0088023D01*
X0096355Y0087642D01*
X0095820Y0087107D01*
X0095376Y0086496D01*
X0095033Y0085823D01*
X0094800Y0085104D01*
X0094681Y0084358D01*
X0094681Y0081180D01*
X0099281Y0081180D01*
X0099281Y0080780D01*
X0094681Y0080780D01*
X0094681Y0077603D01*
X0094800Y0076856D01*
X0095033Y0076138D01*
X0095376Y0075465D01*
X0095820Y0074853D01*
X0096355Y0074319D01*
X0096966Y0073875D01*
X0097639Y0073532D01*
X0098357Y0073299D01*
X0099104Y0073180D01*
X0099281Y0073180D01*
X0099281Y0080780D01*
X0099681Y0080780D01*
X0099681Y0073180D01*
X0099859Y0073180D01*
X0100605Y0073299D01*
X0101324Y0073532D01*
X0101997Y0073875D01*
X0102608Y0074319D01*
X0103143Y0074853D01*
X0103587Y0075465D01*
X0103930Y0076138D01*
X0104163Y0076856D01*
X0104281Y0077603D01*
X0104281Y0080780D01*
X0099682Y0080780D01*
X0099682Y0081180D01*
X0104281Y0081180D01*
X0104281Y0084358D01*
X0104163Y0085104D01*
X0103930Y0085823D01*
X0103587Y0086496D01*
X0103143Y0087107D01*
X0102608Y0087642D01*
X0101997Y0088086D01*
X0101324Y0088429D01*
X0100605Y0088662D01*
X0100251Y0088718D01*
X0100837Y0089304D01*
X0101350Y0090543D01*
X0101350Y0091883D01*
X0100837Y0093121D01*
X0099890Y0094068D01*
X0100767Y0095274D02*
X0105479Y0095274D01*
X0104553Y0096872D02*
X0101693Y0096872D01*
X0101773Y0098471D02*
X0104473Y0098471D01*
X0105239Y0100069D02*
X0101007Y0100069D01*
X0095239Y0100069D02*
X0035584Y0100069D01*
X0035584Y0098471D02*
X0094473Y0098471D01*
X0094553Y0096872D02*
X0035584Y0096872D01*
X0035584Y0095274D02*
X0095479Y0095274D01*
X0095680Y0093675D02*
X0091006Y0093675D01*
X0091066Y0093615D02*
X0090541Y0094140D01*
X0089924Y0094552D01*
X0089238Y0094836D01*
X0088510Y0094981D01*
X0088139Y0094981D01*
X0088139Y0091213D01*
X0088139Y0091213D01*
X0088139Y0094981D01*
X0087768Y0094981D01*
X0087040Y0094836D01*
X0086354Y0094552D01*
X0085737Y0094140D01*
X0085212Y0093615D01*
X0084799Y0092998D01*
X0084515Y0092312D01*
X0084370Y0091584D01*
X0084370Y0091213D01*
X0088139Y0091213D01*
X0091907Y0091213D01*
X0091907Y0091584D01*
X0091763Y0092312D01*
X0091479Y0092998D01*
X0091066Y0093615D01*
X0091809Y0092076D02*
X0094693Y0092076D01*
X0094640Y0090478D02*
X0091835Y0090478D01*
X0091907Y0090841D02*
X0091763Y0090113D01*
X0091479Y0089428D01*
X0091066Y0088810D01*
X0090541Y0088285D01*
X0089924Y0087873D01*
X0089238Y0087589D01*
X0088510Y0087444D01*
X0088139Y0087444D01*
X0088139Y0091212D01*
X0088139Y0091212D01*
X0088139Y0087444D01*
X0087768Y0087444D01*
X0087040Y0087589D01*
X0086354Y0087873D01*
X0085737Y0088285D01*
X0085212Y0088810D01*
X0084799Y0089428D01*
X0084515Y0090113D01*
X0084370Y0090841D01*
X0084370Y0091213D01*
X0088139Y0091213D01*
X0088139Y0091213D01*
X0088139Y0091213D01*
X0091907Y0091213D01*
X0091907Y0090841D01*
X0088139Y0090478D02*
X0088139Y0090478D01*
X0088139Y0092076D02*
X0088139Y0092076D01*
X0088139Y0093675D02*
X0088139Y0093675D01*
X0085272Y0093675D02*
X0035584Y0093675D01*
X0035584Y0092076D02*
X0084468Y0092076D01*
X0084443Y0090478D02*
X0035584Y0090478D01*
X0035584Y0088879D02*
X0085166Y0088879D01*
X0088139Y0088879D02*
X0088139Y0088879D01*
X0091112Y0088879D02*
X0095551Y0088879D01*
X0095994Y0087281D02*
X0035584Y0087281D01*
X0035584Y0085682D02*
X0094988Y0085682D01*
X0094681Y0084084D02*
X0035584Y0084084D01*
X0035584Y0082485D02*
X0094681Y0082485D01*
X0099281Y0080887D02*
X0035584Y0080887D01*
X0035584Y0079288D02*
X0094681Y0079288D01*
X0094681Y0077690D02*
X0035584Y0077690D01*
X0035584Y0076091D02*
X0095057Y0076091D01*
X0096181Y0074493D02*
X0035584Y0074493D01*
X0035584Y0072894D02*
X0177617Y0072894D01*
X0177686Y0072551D02*
X0177530Y0073333D01*
X0177530Y0073732D01*
X0181580Y0073732D01*
X0181580Y0073732D01*
X0185630Y0073732D01*
X0185630Y0073333D01*
X0185474Y0072551D01*
X0185169Y0071814D01*
X0184726Y0071151D01*
X0184162Y0070586D01*
X0183669Y0070257D01*
X0184690Y0069237D01*
X0185246Y0067895D01*
X0185246Y0066443D01*
X0184690Y0065102D01*
X0183663Y0064075D01*
X0182322Y0063519D01*
X0180870Y0063519D01*
X0179528Y0064075D01*
X0178501Y0065102D01*
X0177946Y0066443D01*
X0177946Y0067895D01*
X0178501Y0069237D01*
X0179509Y0070245D01*
X0178998Y0070586D01*
X0178434Y0071151D01*
X0177991Y0071814D01*
X0177686Y0072551D01*
X0177530Y0073732D02*
X0181580Y0073732D01*
X0181580Y0073732D01*
X0185630Y0073732D01*
X0185630Y0074131D01*
X0185474Y0074914D01*
X0185169Y0075651D01*
X0184726Y0076314D01*
X0184162Y0076878D01*
X0183994Y0076990D01*
X0184162Y0077102D01*
X0184726Y0077666D01*
X0185169Y0078330D01*
X0185474Y0079067D01*
X0185630Y0079849D01*
X0185630Y0080248D01*
X0181580Y0080248D01*
X0181580Y0080248D01*
X0185630Y0080248D01*
X0185630Y0080647D01*
X0185474Y0081429D01*
X0185169Y0082166D01*
X0184726Y0082830D01*
X0184162Y0083394D01*
X0183498Y0083837D01*
X0182761Y0084142D01*
X0181979Y0084298D01*
X0181580Y0084298D01*
X0181580Y0080248D01*
X0181580Y0073732D01*
X0181580Y0073732D01*
X0181580Y0077782D01*
X0181580Y0080248D01*
X0181580Y0080248D01*
X0181580Y0080248D01*
X0177530Y0080248D01*
X0177530Y0079849D01*
X0177686Y0079067D01*
X0177991Y0078330D01*
X0178434Y0077666D01*
X0178998Y0077102D01*
X0179166Y0076990D01*
X0178998Y0076878D01*
X0178434Y0076314D01*
X0177991Y0075651D01*
X0177686Y0074914D01*
X0177530Y0074131D01*
X0177530Y0073732D01*
X0177602Y0074493D02*
X0112217Y0074493D01*
X0111974Y0074250D02*
X0113212Y0075488D01*
X0113881Y0077105D01*
X0113881Y0084856D01*
X0113212Y0086473D01*
X0111974Y0087710D01*
X0110357Y0088380D01*
X0108606Y0088380D01*
X0106989Y0087710D01*
X0105751Y0086473D01*
X0105081Y0084856D01*
X0105081Y0077105D01*
X0105751Y0075488D01*
X0106989Y0074250D01*
X0108606Y0073580D01*
X0110357Y0073580D01*
X0111974Y0074250D01*
X0113462Y0076091D02*
X0178285Y0076091D01*
X0178418Y0077690D02*
X0113881Y0077690D01*
X0113881Y0079288D02*
X0116496Y0079288D01*
X0116548Y0079236D02*
X0117889Y0078681D01*
X0119341Y0078681D01*
X0120683Y0079236D01*
X0121710Y0080263D01*
X0122265Y0081605D01*
X0122265Y0083057D01*
X0121710Y0084398D01*
X0120683Y0085425D01*
X0119341Y0085981D01*
X0117889Y0085981D01*
X0116548Y0085425D01*
X0115521Y0084398D01*
X0114965Y0083057D01*
X0114965Y0081605D01*
X0115521Y0080263D01*
X0116548Y0079236D01*
X0115263Y0080887D02*
X0113881Y0080887D01*
X0113881Y0082485D02*
X0114965Y0082485D01*
X0115391Y0084084D02*
X0113881Y0084084D01*
X0113539Y0085682D02*
X0117169Y0085682D01*
X0120061Y0085682D02*
X0186930Y0085682D01*
X0186930Y0085269D02*
X0186930Y0086534D01*
X0187415Y0087704D01*
X0188309Y0088598D01*
X0189479Y0089083D01*
X0190744Y0089083D01*
X0191913Y0088598D01*
X0192423Y0088089D01*
X0200447Y0088089D01*
X0202415Y0086120D01*
X0203696Y0084839D01*
X0203696Y0083293D01*
X0204674Y0082316D01*
X0205230Y0080974D01*
X0205230Y0079522D01*
X0204674Y0078180D01*
X0203647Y0077154D01*
X0203253Y0076990D01*
X0203647Y0076827D01*
X0204674Y0075800D01*
X0205230Y0074458D01*
X0205230Y0073006D01*
X0204674Y0071665D01*
X0203647Y0070638D01*
X0203203Y0070454D01*
X0203663Y0070264D01*
X0204690Y0069237D01*
X0205246Y0067895D01*
X0205246Y0066443D01*
X0204690Y0065102D01*
X0203663Y0064075D01*
X0202322Y0063519D01*
X0200870Y0063519D01*
X0199528Y0064075D01*
X0198501Y0065102D01*
X0197946Y0066443D01*
X0197946Y0067895D01*
X0198501Y0069237D01*
X0199528Y0070264D01*
X0199972Y0070448D01*
X0199512Y0070638D01*
X0198486Y0071665D01*
X0197930Y0073006D01*
X0197930Y0074458D01*
X0198486Y0075800D01*
X0199512Y0076827D01*
X0199907Y0076990D01*
X0199512Y0077154D01*
X0198486Y0078180D01*
X0197930Y0079522D01*
X0197930Y0080974D01*
X0198486Y0082316D01*
X0199259Y0083089D01*
X0198634Y0083714D01*
X0192423Y0083714D01*
X0191913Y0083205D01*
X0190744Y0082720D01*
X0189479Y0082720D01*
X0188309Y0083205D01*
X0187415Y0084100D01*
X0186930Y0085269D01*
X0187430Y0084084D02*
X0182902Y0084084D01*
X0181580Y0084084D02*
X0181580Y0084084D01*
X0181580Y0084298D02*
X0181181Y0084298D01*
X0180399Y0084142D01*
X0179662Y0083837D01*
X0178998Y0083394D01*
X0178434Y0082830D01*
X0177991Y0082166D01*
X0177686Y0081429D01*
X0177530Y0080647D01*
X0177530Y0080248D01*
X0181580Y0080248D01*
X0181580Y0080248D01*
X0181580Y0084298D01*
X0180257Y0084084D02*
X0121840Y0084084D01*
X0122265Y0082485D02*
X0178204Y0082485D01*
X0177578Y0080887D02*
X0121968Y0080887D01*
X0120735Y0079288D02*
X0177641Y0079288D01*
X0181580Y0079288D02*
X0181580Y0079288D01*
X0181580Y0077690D02*
X0181580Y0077690D01*
X0181580Y0076091D02*
X0181580Y0076091D01*
X0181580Y0074493D02*
X0181580Y0074493D01*
X0184875Y0076091D02*
X0198777Y0076091D01*
X0198976Y0077690D02*
X0184741Y0077690D01*
X0185518Y0079288D02*
X0198027Y0079288D01*
X0197930Y0080887D02*
X0185582Y0080887D01*
X0184956Y0082485D02*
X0198655Y0082485D01*
X0203696Y0084084D02*
X0211018Y0084084D01*
X0211215Y0084559D02*
X0210602Y0083080D01*
X0210602Y0081479D01*
X0211215Y0080000D01*
X0212347Y0078867D01*
X0213827Y0078255D01*
X0215428Y0078255D01*
X0216907Y0078867D01*
X0218039Y0080000D01*
X0218652Y0081479D01*
X0218652Y0083080D01*
X0218039Y0084559D01*
X0216907Y0085692D01*
X0215837Y0086135D01*
X0216966Y0086603D01*
X0217993Y0087629D01*
X0218549Y0088971D01*
X0218549Y0090423D01*
X0217993Y0091764D01*
X0216966Y0092791D01*
X0215625Y0093347D01*
X0214173Y0093347D01*
X0212831Y0092791D01*
X0211804Y0091764D01*
X0211249Y0090423D01*
X0211249Y0088971D01*
X0211804Y0087629D01*
X0212831Y0086603D01*
X0213689Y0086247D01*
X0212347Y0085692D01*
X0211215Y0084559D01*
X0212338Y0085682D02*
X0202853Y0085682D01*
X0201255Y0087281D02*
X0212153Y0087281D01*
X0211287Y0088879D02*
X0191235Y0088879D01*
X0188988Y0088879D02*
X0100412Y0088879D01*
X0101323Y0090478D02*
X0211272Y0090478D01*
X0212117Y0092076D02*
X0101270Y0092076D01*
X0102969Y0087281D02*
X0106560Y0087281D01*
X0105424Y0085682D02*
X0103975Y0085682D01*
X0104281Y0084084D02*
X0105081Y0084084D01*
X0105081Y0082485D02*
X0104281Y0082485D01*
X0105081Y0080887D02*
X0099682Y0080887D01*
X0099681Y0079288D02*
X0099281Y0079288D01*
X0099281Y0077690D02*
X0099681Y0077690D01*
X0099681Y0076091D02*
X0099281Y0076091D01*
X0099281Y0074493D02*
X0099681Y0074493D01*
X0102782Y0074493D02*
X0106746Y0074493D01*
X0105501Y0076091D02*
X0103906Y0076091D01*
X0104281Y0077690D02*
X0105081Y0077690D01*
X0105081Y0079288D02*
X0104281Y0079288D01*
X0112403Y0087281D02*
X0187240Y0087281D01*
X0181580Y0082485D02*
X0181580Y0082485D01*
X0181580Y0080887D02*
X0181580Y0080887D01*
X0185558Y0074493D02*
X0197944Y0074493D01*
X0197976Y0072894D02*
X0185543Y0072894D01*
X0184823Y0071296D02*
X0198854Y0071296D01*
X0198962Y0069697D02*
X0184230Y0069697D01*
X0185161Y0068099D02*
X0198030Y0068099D01*
X0197946Y0066500D02*
X0185246Y0066500D01*
X0184490Y0064902D02*
X0198701Y0064902D01*
X0204490Y0064902D02*
X0211557Y0064902D01*
X0211215Y0064559D02*
X0210602Y0063080D01*
X0210602Y0061479D01*
X0211215Y0060000D01*
X0212347Y0058867D01*
X0213827Y0058255D01*
X0215428Y0058255D01*
X0216907Y0058867D01*
X0218039Y0060000D01*
X0218652Y0061479D01*
X0218652Y0063080D01*
X0218039Y0064559D01*
X0216907Y0065692D01*
X0215428Y0066305D01*
X0213827Y0066305D01*
X0212347Y0065692D01*
X0211215Y0064559D01*
X0210695Y0063303D02*
X0182158Y0063303D01*
X0182085Y0063318D02*
X0181686Y0063318D01*
X0181287Y0063318D01*
X0180505Y0063162D01*
X0179768Y0062857D01*
X0179104Y0062414D01*
X0178540Y0061849D01*
X0178097Y0061186D01*
X0177792Y0060449D01*
X0177636Y0059667D01*
X0177636Y0059268D01*
X0181686Y0059268D01*
X0181686Y0063318D01*
X0181686Y0059268D01*
X0181686Y0059268D01*
X0181686Y0059268D01*
X0177636Y0059268D01*
X0177636Y0058869D01*
X0177792Y0058086D01*
X0178097Y0057349D01*
X0178540Y0056686D01*
X0179104Y0056122D01*
X0179768Y0055679D01*
X0180505Y0055373D01*
X0181287Y0055218D01*
X0181686Y0055218D01*
X0181686Y0059268D01*
X0185736Y0059268D01*
X0185736Y0059667D01*
X0185581Y0060449D01*
X0185275Y0061186D01*
X0184832Y0061849D01*
X0184268Y0062414D01*
X0183605Y0062857D01*
X0182868Y0063162D01*
X0182085Y0063318D01*
X0181686Y0063303D02*
X0181686Y0063303D01*
X0181215Y0063303D02*
X0122163Y0063303D01*
X0122265Y0063057D02*
X0121710Y0064398D01*
X0120683Y0065425D01*
X0119341Y0065981D01*
X0117889Y0065981D01*
X0116548Y0065425D01*
X0115521Y0064398D01*
X0114965Y0063057D01*
X0114965Y0061605D01*
X0115521Y0060263D01*
X0116548Y0059236D01*
X0117889Y0058681D01*
X0119341Y0058681D01*
X0120683Y0059236D01*
X0121710Y0060263D01*
X0122265Y0061605D01*
X0122265Y0063057D01*
X0122265Y0061705D02*
X0158961Y0061705D01*
X0158592Y0061335D02*
X0158036Y0059994D01*
X0158036Y0058542D01*
X0158592Y0057200D01*
X0159619Y0056173D01*
X0160960Y0055618D01*
X0162412Y0055618D01*
X0163754Y0056173D01*
X0164781Y0057200D01*
X0165336Y0058542D01*
X0165336Y0059994D01*
X0164781Y0061335D01*
X0163754Y0062362D01*
X0162412Y0062918D01*
X0160960Y0062918D01*
X0159619Y0062362D01*
X0158592Y0061335D01*
X0158083Y0060106D02*
X0121553Y0060106D01*
X0121206Y0064902D02*
X0178701Y0064902D01*
X0177946Y0066500D02*
X0035584Y0066500D01*
X0035584Y0064902D02*
X0116025Y0064902D01*
X0115067Y0063303D02*
X0035584Y0063303D01*
X0035584Y0061705D02*
X0114965Y0061705D01*
X0115678Y0060106D02*
X0035584Y0060106D01*
X0035584Y0058508D02*
X0158050Y0058508D01*
X0158883Y0056909D02*
X0035584Y0056909D01*
X0035584Y0055311D02*
X0180820Y0055311D01*
X0181686Y0055311D02*
X0181686Y0055311D01*
X0181686Y0055218D02*
X0182085Y0055218D01*
X0182868Y0055373D01*
X0183605Y0055679D01*
X0184268Y0056122D01*
X0184832Y0056686D01*
X0185275Y0057349D01*
X0185581Y0058086D01*
X0185736Y0058869D01*
X0185736Y0059268D01*
X0181686Y0059268D01*
X0181686Y0059268D01*
X0181686Y0059268D01*
X0181686Y0055218D01*
X0182553Y0055311D02*
X0211966Y0055311D01*
X0212347Y0055692D02*
X0211215Y0054559D01*
X0210602Y0053080D01*
X0210602Y0051479D01*
X0211029Y0050448D01*
X0210429Y0050697D01*
X0209164Y0050697D01*
X0207995Y0050213D01*
X0207100Y0049318D01*
X0206615Y0048149D01*
X0206615Y0046883D01*
X0207100Y0045714D01*
X0207995Y0044819D01*
X0209164Y0044335D01*
X0210429Y0044335D01*
X0211598Y0044819D01*
X0212095Y0045316D01*
X0227909Y0045316D01*
X0227921Y0045328D01*
X0228278Y0045328D01*
X0228278Y0043141D01*
X0229368Y0042052D01*
X0228456Y0042430D01*
X0227003Y0042430D01*
X0225662Y0041874D01*
X0224635Y0040847D01*
X0224080Y0039506D01*
X0224080Y0038053D01*
X0224635Y0036712D01*
X0225662Y0035685D01*
X0227003Y0035130D01*
X0228456Y0035130D01*
X0229797Y0035685D01*
X0230824Y0036712D01*
X0231380Y0038053D01*
X0231380Y0039506D01*
X0231002Y0040418D01*
X0231497Y0039923D01*
X0231497Y0038640D01*
X0232053Y0037299D01*
X0233079Y0036272D01*
X0234421Y0035716D01*
X0235873Y0035716D01*
X0237214Y0036272D01*
X0238241Y0037299D01*
X0238797Y0038640D01*
X0238797Y0040092D01*
X0238241Y0041434D01*
X0237214Y0042460D01*
X0235873Y0043016D01*
X0234590Y0043016D01*
X0232653Y0044953D01*
X0232653Y0048422D01*
X0231372Y0049703D01*
X0227921Y0049703D01*
X0227909Y0049716D01*
X0217756Y0049716D01*
X0218039Y0050000D01*
X0218652Y0051479D01*
X0218652Y0053080D01*
X0218039Y0054559D01*
X0216907Y0055692D01*
X0215428Y0056305D01*
X0213827Y0056305D01*
X0212347Y0055692D01*
X0210864Y0053712D02*
X0035584Y0053712D01*
X0035584Y0052114D02*
X0210602Y0052114D01*
X0210868Y0050515D02*
X0211001Y0050515D01*
X0208725Y0050515D02*
X0035584Y0050515D01*
X0035584Y0048917D02*
X0206934Y0048917D01*
X0206615Y0047318D02*
X0035584Y0047318D01*
X0035584Y0045720D02*
X0207097Y0045720D01*
X0209796Y0047516D02*
X0226997Y0047516D01*
X0228278Y0044121D02*
X0035584Y0044121D01*
X0035584Y0042523D02*
X0109494Y0042523D01*
X0109087Y0042354D02*
X0108060Y0041327D01*
X0107505Y0039986D01*
X0107505Y0038534D01*
X0108060Y0037192D01*
X0109087Y0036166D01*
X0110429Y0035610D01*
X0111881Y0035610D01*
X0113222Y0036166D01*
X0114249Y0037192D01*
X0114805Y0038534D01*
X0114805Y0039986D01*
X0114249Y0041327D01*
X0113222Y0042354D01*
X0111881Y0042910D01*
X0110429Y0042910D01*
X0109087Y0042354D01*
X0107893Y0040924D02*
X0035584Y0040924D01*
X0035584Y0039326D02*
X0107505Y0039326D01*
X0107839Y0037727D02*
X0035584Y0037727D01*
X0035584Y0036129D02*
X0042277Y0036129D01*
X0042678Y0036529D02*
X0041651Y0035502D01*
X0041095Y0034161D01*
X0041095Y0032709D01*
X0041651Y0031367D01*
X0042678Y0030340D01*
X0043976Y0029803D01*
X0042678Y0029265D01*
X0041651Y0028238D01*
X0041095Y0026897D01*
X0041095Y0025445D01*
X0041651Y0024103D01*
X0042678Y0023077D01*
X0042787Y0023031D01*
X0042678Y0022986D01*
X0041651Y0021959D01*
X0041095Y0020617D01*
X0041095Y0019165D01*
X0041651Y0017824D01*
X0042678Y0016797D01*
X0044019Y0016241D01*
X0045471Y0016241D01*
X0046813Y0016797D01*
X0047840Y0017824D01*
X0048395Y0019165D01*
X0048395Y0020617D01*
X0047840Y0021959D01*
X0046813Y0022986D01*
X0046703Y0023031D01*
X0046813Y0023077D01*
X0047840Y0024103D01*
X0048395Y0025445D01*
X0048395Y0026897D01*
X0047840Y0028238D01*
X0046813Y0029265D01*
X0045515Y0029803D01*
X0046813Y0030340D01*
X0047840Y0031367D01*
X0048395Y0032709D01*
X0048395Y0034161D01*
X0047840Y0035502D01*
X0046813Y0036529D01*
X0045471Y0037085D01*
X0044019Y0037085D01*
X0042678Y0036529D01*
X0041248Y0034530D02*
X0035584Y0034530D01*
X0035584Y0032932D02*
X0041095Y0032932D01*
X0041685Y0031333D02*
X0035584Y0031333D01*
X0035584Y0029735D02*
X0043811Y0029735D01*
X0045680Y0029735D02*
X0063811Y0029735D01*
X0063976Y0029803D02*
X0062678Y0029265D01*
X0061651Y0028238D01*
X0061095Y0026897D01*
X0061095Y0025445D01*
X0061651Y0024103D01*
X0062678Y0023077D01*
X0062787Y0023031D01*
X0062678Y0022986D01*
X0061651Y0021959D01*
X0061095Y0020617D01*
X0061095Y0019165D01*
X0061651Y0017824D01*
X0062678Y0016797D01*
X0064019Y0016241D01*
X0065471Y0016241D01*
X0066813Y0016797D01*
X0067840Y0017824D01*
X0068395Y0019165D01*
X0068395Y0020617D01*
X0067840Y0021959D01*
X0066813Y0022986D01*
X0066703Y0023031D01*
X0066813Y0023077D01*
X0067840Y0024103D01*
X0068395Y0025445D01*
X0068395Y0026897D01*
X0067840Y0028238D01*
X0066813Y0029265D01*
X0065515Y0029803D01*
X0066813Y0030340D01*
X0067840Y0031367D01*
X0068395Y0032709D01*
X0068395Y0034161D01*
X0067840Y0035502D01*
X0066813Y0036529D01*
X0065471Y0037085D01*
X0064019Y0037085D01*
X0062678Y0036529D01*
X0061651Y0035502D01*
X0061095Y0034161D01*
X0061095Y0032709D01*
X0061651Y0031367D01*
X0062678Y0030340D01*
X0063976Y0029803D01*
X0065680Y0029735D02*
X0083626Y0029735D01*
X0083626Y0029247D02*
X0083749Y0028789D01*
X0083986Y0028379D01*
X0084321Y0028044D01*
X0084732Y0027807D01*
X0085189Y0027684D01*
X0087296Y0027684D01*
X0087296Y0031354D01*
X0083626Y0031354D01*
X0083626Y0029247D01*
X0084229Y0028136D02*
X0067882Y0028136D01*
X0068395Y0026538D02*
X0116143Y0026538D01*
X0115967Y0026610D02*
X0117136Y0026126D01*
X0118402Y0026126D01*
X0119571Y0026610D01*
X0120466Y0027505D01*
X0120950Y0028674D01*
X0120950Y0029940D01*
X0120466Y0031109D01*
X0119571Y0032004D01*
X0118402Y0032488D01*
X0117136Y0032488D01*
X0115967Y0032004D01*
X0115072Y0031109D01*
X0114588Y0029940D01*
X0114588Y0028674D01*
X0115072Y0027505D01*
X0115967Y0026610D01*
X0114811Y0028136D02*
X0107757Y0028136D01*
X0107632Y0028084D02*
X0108834Y0028582D01*
X0109754Y0029502D01*
X0110252Y0030704D01*
X0110252Y0032005D01*
X0109754Y0033207D01*
X0108834Y0034127D01*
X0107632Y0034624D01*
X0106331Y0034624D01*
X0105129Y0034127D01*
X0104209Y0033207D01*
X0103711Y0032005D01*
X0103711Y0030704D01*
X0104209Y0029502D01*
X0105129Y0028582D01*
X0106331Y0028084D01*
X0107632Y0028084D01*
X0106206Y0028136D02*
X0090364Y0028136D01*
X0090272Y0028044D02*
X0090607Y0028379D01*
X0090844Y0028789D01*
X0090967Y0029247D01*
X0090967Y0031354D01*
X0087297Y0031354D01*
X0087297Y0031354D01*
X0087297Y0027684D01*
X0089404Y0027684D01*
X0089861Y0027807D01*
X0090272Y0028044D01*
X0090967Y0029735D02*
X0104113Y0029735D01*
X0103711Y0031333D02*
X0090967Y0031333D01*
X0090967Y0031354D02*
X0090967Y0033461D01*
X0090844Y0033919D01*
X0090607Y0034330D01*
X0090272Y0034665D01*
X0089861Y0034902D01*
X0089404Y0035024D01*
X0087297Y0035024D01*
X0087297Y0031354D01*
X0087296Y0031354D01*
X0087296Y0031354D01*
X0083626Y0031354D01*
X0083626Y0033461D01*
X0083749Y0033919D01*
X0083986Y0034330D01*
X0084321Y0034665D01*
X0084732Y0034902D01*
X0085189Y0035024D01*
X0087296Y0035024D01*
X0087296Y0031354D01*
X0087297Y0031354D01*
X0090967Y0031354D01*
X0090967Y0032932D02*
X0104095Y0032932D01*
X0106103Y0034530D02*
X0090406Y0034530D01*
X0087297Y0034530D02*
X0087296Y0034530D01*
X0087296Y0032932D02*
X0087297Y0032932D01*
X0087296Y0031333D02*
X0087297Y0031333D01*
X0087296Y0029735D02*
X0087297Y0029735D01*
X0087296Y0028136D02*
X0087297Y0028136D01*
X0083626Y0031333D02*
X0067806Y0031333D01*
X0068395Y0032932D02*
X0083626Y0032932D01*
X0084186Y0034530D02*
X0068242Y0034530D01*
X0067213Y0036129D02*
X0109176Y0036129D01*
X0107860Y0034530D02*
X0301450Y0034530D01*
X0302313Y0033667D02*
X0302313Y0012689D01*
X0301816Y0012192D01*
X0301332Y0011023D01*
X0301332Y0009757D01*
X0301816Y0008588D01*
X0302711Y0007693D01*
X0303880Y0007209D01*
X0305146Y0007209D01*
X0306315Y0007693D01*
X0307210Y0008588D01*
X0307694Y0009757D01*
X0307694Y0011023D01*
X0307210Y0012192D01*
X0306713Y0012689D01*
X0306713Y0035490D01*
X0305662Y0036541D01*
X0306096Y0036320D01*
X0306719Y0036117D01*
X0307367Y0036015D01*
X0307694Y0036015D01*
X0307694Y0040177D01*
X0307694Y0040177D01*
X0303532Y0040177D01*
X0303532Y0039850D01*
X0303634Y0039203D01*
X0303837Y0038579D01*
X0304058Y0038145D01*
X0296634Y0045569D01*
X0296634Y0054640D01*
X0291771Y0059503D01*
X0291771Y0060611D01*
X0291198Y0061993D01*
X0290140Y0063052D01*
X0288757Y0063624D01*
X0287261Y0063624D01*
X0285878Y0063052D01*
X0284820Y0061993D01*
X0284247Y0060611D01*
X0284247Y0059114D01*
X0284820Y0057731D01*
X0285878Y0056673D01*
X0287261Y0056100D01*
X0288757Y0056100D01*
X0288895Y0056157D01*
X0292234Y0052817D01*
X0292234Y0043746D01*
X0293523Y0042457D01*
X0302313Y0033667D01*
X0302313Y0032932D02*
X0290733Y0032932D01*
X0291198Y0032466D02*
X0290140Y0033524D01*
X0288757Y0034097D01*
X0287261Y0034097D01*
X0285878Y0033524D01*
X0284820Y0032466D01*
X0284247Y0031083D01*
X0284247Y0029586D01*
X0284820Y0028204D01*
X0285878Y0027145D01*
X0287261Y0026572D01*
X0288757Y0026572D01*
X0290140Y0027145D01*
X0291198Y0028204D01*
X0291771Y0029586D01*
X0291771Y0031083D01*
X0291198Y0032466D01*
X0291668Y0031333D02*
X0302313Y0031333D01*
X0302313Y0029735D02*
X0291771Y0029735D01*
X0291131Y0028136D02*
X0302313Y0028136D01*
X0302313Y0026538D02*
X0208232Y0026538D01*
X0208232Y0025306D02*
X0207412Y0024486D01*
X0202512Y0024486D01*
X0201692Y0025306D01*
X0201692Y0030206D01*
X0202512Y0031026D01*
X0207412Y0031026D01*
X0208232Y0030206D01*
X0208232Y0025306D01*
X0207865Y0024939D02*
X0302313Y0024939D01*
X0302313Y0023341D02*
X0290481Y0023341D01*
X0290140Y0023682D02*
X0288757Y0024254D01*
X0287261Y0024254D01*
X0285878Y0023682D01*
X0284820Y0022623D01*
X0284247Y0021240D01*
X0284247Y0019744D01*
X0284820Y0018361D01*
X0285809Y0017372D01*
X0285809Y0014652D01*
X0290982Y0009478D01*
X0291642Y0008819D01*
X0291737Y0008588D01*
X0292632Y0007693D01*
X0293801Y0007209D01*
X0295067Y0007209D01*
X0296236Y0007693D01*
X0297131Y0008588D01*
X0297615Y0009757D01*
X0297615Y0011023D01*
X0297131Y0012192D01*
X0296236Y0013087D01*
X0295067Y0013571D01*
X0293801Y0013571D01*
X0293314Y0013369D01*
X0290209Y0016474D01*
X0290209Y0017372D01*
X0291198Y0018361D01*
X0291771Y0019744D01*
X0291771Y0021240D01*
X0291198Y0022623D01*
X0290140Y0023682D01*
X0285537Y0023341D02*
X0263381Y0023341D01*
X0262786Y0023587D02*
X0261334Y0023587D01*
X0259993Y0023031D01*
X0258966Y0022005D01*
X0258410Y0020663D01*
X0258410Y0019211D01*
X0258966Y0017869D01*
X0259993Y0016843D01*
X0261334Y0016287D01*
X0262786Y0016287D01*
X0264128Y0016843D01*
X0265155Y0017869D01*
X0265710Y0019211D01*
X0265710Y0020663D01*
X0265155Y0022005D01*
X0264128Y0023031D01*
X0262786Y0023587D01*
X0260739Y0023341D02*
X0235926Y0023341D01*
X0235546Y0023416D02*
X0235147Y0023416D01*
X0235147Y0019366D01*
X0235147Y0019366D01*
X0239197Y0019366D01*
X0239197Y0018967D01*
X0239041Y0018185D01*
X0238736Y0017448D01*
X0238293Y0016784D01*
X0237729Y0016220D01*
X0237065Y0015777D01*
X0236328Y0015472D01*
X0235546Y0015316D01*
X0235147Y0015316D01*
X0235147Y0019366D01*
X0235147Y0019366D01*
X0239197Y0019366D01*
X0239197Y0019765D01*
X0239041Y0020547D01*
X0238736Y0021285D01*
X0238293Y0021948D01*
X0237729Y0022512D01*
X0237065Y0022955D01*
X0236328Y0023260D01*
X0235546Y0023416D01*
X0235147Y0023416D02*
X0234748Y0023416D01*
X0233966Y0023260D01*
X0233228Y0022955D01*
X0232565Y0022512D01*
X0232001Y0021948D01*
X0231558Y0021285D01*
X0231252Y0020547D01*
X0231154Y0020051D01*
X0230824Y0020847D01*
X0229797Y0021874D01*
X0228456Y0022430D01*
X0227003Y0022430D01*
X0225662Y0021874D01*
X0224635Y0020847D01*
X0224080Y0019506D01*
X0224080Y0018053D01*
X0224635Y0016712D01*
X0225662Y0015685D01*
X0227003Y0015130D01*
X0228456Y0015130D01*
X0229797Y0015685D01*
X0230824Y0016712D01*
X0231343Y0017966D01*
X0231558Y0017448D01*
X0232001Y0016784D01*
X0232565Y0016220D01*
X0233228Y0015777D01*
X0233966Y0015472D01*
X0234748Y0015316D01*
X0235147Y0015316D01*
X0235147Y0019366D01*
X0235147Y0019366D01*
X0235147Y0023416D01*
X0235147Y0023341D02*
X0235147Y0023341D01*
X0234368Y0023341D02*
X0067077Y0023341D01*
X0067929Y0021742D02*
X0216590Y0021742D01*
X0216910Y0021955D02*
X0216246Y0021512D01*
X0215682Y0020948D01*
X0215239Y0020285D01*
X0214934Y0019547D01*
X0214778Y0018765D01*
X0214778Y0018366D01*
X0214778Y0017967D01*
X0214934Y0017185D01*
X0215239Y0016448D01*
X0215682Y0015784D01*
X0216246Y0015220D01*
X0216910Y0014777D01*
X0217647Y0014472D01*
X0218429Y0014316D01*
X0218828Y0014316D01*
X0219227Y0014316D01*
X0220009Y0014472D01*
X0220746Y0014777D01*
X0221410Y0015220D01*
X0221974Y0015784D01*
X0222417Y0016448D01*
X0222722Y0017185D01*
X0222878Y0017967D01*
X0222878Y0018366D01*
X0218828Y0018366D01*
X0218828Y0014316D01*
X0218828Y0018366D01*
X0218828Y0018366D01*
X0218828Y0018366D01*
X0214778Y0018366D01*
X0218828Y0018366D01*
X0218828Y0018366D01*
X0222878Y0018366D01*
X0222878Y0018765D01*
X0222722Y0019547D01*
X0222417Y0020285D01*
X0221974Y0020948D01*
X0221410Y0021512D01*
X0220746Y0021955D01*
X0220009Y0022260D01*
X0219227Y0022416D01*
X0218828Y0022416D01*
X0218828Y0018366D01*
X0218828Y0018366D01*
X0218828Y0022416D01*
X0218429Y0022416D01*
X0217647Y0022260D01*
X0216910Y0021955D01*
X0218828Y0021742D02*
X0218828Y0021742D01*
X0218828Y0020143D02*
X0218828Y0020143D01*
X0218828Y0018545D02*
X0218828Y0018545D01*
X0218828Y0016946D02*
X0218828Y0016946D01*
X0218828Y0015348D02*
X0218828Y0015348D01*
X0221537Y0015348D02*
X0226476Y0015348D01*
X0228983Y0015348D02*
X0234588Y0015348D01*
X0235147Y0015348D02*
X0235147Y0015348D01*
X0235706Y0015348D02*
X0285809Y0015348D01*
X0285809Y0016946D02*
X0264232Y0016946D01*
X0265434Y0018545D02*
X0284743Y0018545D01*
X0284247Y0020143D02*
X0265710Y0020143D01*
X0265263Y0021742D02*
X0284455Y0021742D01*
X0288009Y0020492D02*
X0288009Y0015563D01*
X0293182Y0010390D01*
X0294434Y0010390D01*
X0297615Y0010552D02*
X0301332Y0010552D01*
X0301665Y0008954D02*
X0297283Y0008954D01*
X0295421Y0007355D02*
X0303526Y0007355D01*
X0305500Y0007355D02*
X0323333Y0007355D01*
X0323333Y0006077D02*
X0035584Y0006177D01*
X0035584Y0152831D01*
X0323333Y0152731D01*
X0323333Y0006077D01*
X0323333Y0008954D02*
X0307361Y0008954D01*
X0307694Y0010552D02*
X0323333Y0010552D01*
X0323333Y0012151D02*
X0307227Y0012151D01*
X0306713Y0013749D02*
X0323333Y0013749D01*
X0323333Y0015348D02*
X0306713Y0015348D01*
X0306713Y0016946D02*
X0323333Y0016946D01*
X0323333Y0018545D02*
X0306713Y0018545D01*
X0306713Y0020143D02*
X0323333Y0020143D01*
X0323333Y0021742D02*
X0306713Y0021742D01*
X0306713Y0023341D02*
X0323333Y0023341D01*
X0323333Y0024939D02*
X0306713Y0024939D01*
X0306713Y0026538D02*
X0323333Y0026538D01*
X0323333Y0028136D02*
X0306713Y0028136D01*
X0306713Y0029735D02*
X0323333Y0029735D01*
X0323333Y0031333D02*
X0306713Y0031333D01*
X0306713Y0032932D02*
X0323333Y0032932D01*
X0323333Y0034530D02*
X0306713Y0034530D01*
X0306685Y0036129D02*
X0306074Y0036129D01*
X0307694Y0036129D02*
X0307694Y0036129D01*
X0307694Y0036015D02*
X0308022Y0036015D01*
X0308669Y0036117D01*
X0309292Y0036320D01*
X0309876Y0036617D01*
X0310406Y0037002D01*
X0310869Y0037466D01*
X0311254Y0037996D01*
X0311551Y0038579D01*
X0311754Y0039203D01*
X0311856Y0039850D01*
X0311856Y0040177D01*
X0307694Y0040177D01*
X0307694Y0040177D01*
X0307694Y0036015D01*
X0308703Y0036129D02*
X0323333Y0036129D01*
X0323333Y0037727D02*
X0311059Y0037727D01*
X0311773Y0039326D02*
X0323333Y0039326D01*
X0323333Y0040924D02*
X0311790Y0040924D01*
X0311754Y0041152D02*
X0311551Y0041775D01*
X0311254Y0042359D01*
X0310869Y0042889D01*
X0310406Y0043352D01*
X0309876Y0043737D01*
X0309292Y0044034D01*
X0308669Y0044237D01*
X0308022Y0044339D01*
X0307694Y0044339D01*
X0307367Y0044339D01*
X0306719Y0044237D01*
X0306096Y0044034D01*
X0305513Y0043737D01*
X0304983Y0043352D01*
X0304519Y0042889D01*
X0304134Y0042359D01*
X0303837Y0041775D01*
X0303634Y0041152D01*
X0303532Y0040505D01*
X0303532Y0040177D01*
X0307694Y0040177D01*
X0307694Y0040177D01*
X0307694Y0044339D01*
X0307694Y0040177D01*
X0307694Y0040177D01*
X0311856Y0040177D01*
X0311856Y0040505D01*
X0311754Y0041152D01*
X0311135Y0042523D02*
X0323333Y0042523D01*
X0323333Y0044121D02*
X0309025Y0044121D01*
X0307694Y0044121D02*
X0307694Y0044121D01*
X0306363Y0044121D02*
X0298082Y0044121D01*
X0296634Y0045720D02*
X0323333Y0045720D01*
X0323333Y0047318D02*
X0296634Y0047318D01*
X0296634Y0048917D02*
X0323333Y0048917D01*
X0323333Y0050515D02*
X0296634Y0050515D01*
X0296634Y0052114D02*
X0323333Y0052114D01*
X0323333Y0053712D02*
X0296634Y0053712D01*
X0295963Y0055311D02*
X0323333Y0055311D01*
X0323333Y0056909D02*
X0294365Y0056909D01*
X0292766Y0058508D02*
X0323333Y0058508D01*
X0323333Y0060106D02*
X0291771Y0060106D01*
X0291318Y0061705D02*
X0323333Y0061705D01*
X0323333Y0063303D02*
X0289533Y0063303D01*
X0286485Y0063303D02*
X0248560Y0063303D01*
X0248652Y0063080D02*
X0248039Y0064559D01*
X0246907Y0065692D01*
X0245428Y0066305D01*
X0243827Y0066305D01*
X0242347Y0065692D01*
X0241215Y0064559D01*
X0240602Y0063080D01*
X0240602Y0061479D01*
X0241215Y0060000D01*
X0242347Y0058867D01*
X0243827Y0058255D01*
X0245428Y0058255D01*
X0246907Y0058867D01*
X0248039Y0060000D01*
X0248652Y0061479D01*
X0248652Y0063080D01*
X0248652Y0061705D02*
X0249001Y0061705D01*
X0248962Y0061666D02*
X0248406Y0060324D01*
X0248406Y0058872D01*
X0248962Y0057531D01*
X0249989Y0056504D01*
X0251330Y0055948D01*
X0252782Y0055948D01*
X0254124Y0056504D01*
X0255151Y0057531D01*
X0255706Y0058872D01*
X0255706Y0060324D01*
X0255151Y0061666D01*
X0254124Y0062693D01*
X0252782Y0063248D01*
X0251330Y0063248D01*
X0249989Y0062693D01*
X0248962Y0061666D01*
X0248406Y0060106D02*
X0248084Y0060106D01*
X0248557Y0058508D02*
X0246039Y0058508D01*
X0243215Y0058508D02*
X0216039Y0058508D01*
X0218084Y0060106D02*
X0241171Y0060106D01*
X0240602Y0061705D02*
X0218652Y0061705D01*
X0218560Y0063303D02*
X0240695Y0063303D01*
X0241557Y0064902D02*
X0217697Y0064902D01*
X0216907Y0068867D02*
X0218039Y0070000D01*
X0218652Y0071479D01*
X0218652Y0073080D01*
X0218039Y0074559D01*
X0216907Y0075692D01*
X0215428Y0076305D01*
X0213827Y0076305D01*
X0212347Y0075692D01*
X0211215Y0074559D01*
X0210602Y0073080D01*
X0210602Y0071479D01*
X0211215Y0070000D01*
X0212347Y0068867D01*
X0213827Y0068255D01*
X0215428Y0068255D01*
X0216907Y0068867D01*
X0217737Y0069697D02*
X0241517Y0069697D01*
X0241215Y0070000D02*
X0242347Y0068867D01*
X0243827Y0068255D01*
X0245428Y0068255D01*
X0246907Y0068867D01*
X0248039Y0070000D01*
X0248652Y0071479D01*
X0248652Y0073080D01*
X0248039Y0074559D01*
X0246907Y0075692D01*
X0245428Y0076305D01*
X0243827Y0076305D01*
X0242347Y0075692D01*
X0241215Y0074559D01*
X0240602Y0073080D01*
X0240602Y0071479D01*
X0241215Y0070000D01*
X0240678Y0071296D02*
X0218576Y0071296D01*
X0218652Y0072894D02*
X0240602Y0072894D01*
X0241187Y0074493D02*
X0218067Y0074493D01*
X0215942Y0076091D02*
X0243312Y0076091D01*
X0245942Y0076091D02*
X0248717Y0076091D01*
X0248717Y0076809D02*
X0248717Y0075357D01*
X0249273Y0074015D01*
X0250300Y0072988D01*
X0251641Y0072433D01*
X0253093Y0072433D01*
X0254435Y0072988D01*
X0255462Y0074015D01*
X0256017Y0075357D01*
X0256017Y0076809D01*
X0255462Y0078150D01*
X0254435Y0079177D01*
X0253093Y0079733D01*
X0251641Y0079733D01*
X0250300Y0079177D01*
X0249273Y0078150D01*
X0248717Y0076809D01*
X0249082Y0077690D02*
X0204184Y0077690D01*
X0204383Y0076091D02*
X0213312Y0076091D01*
X0211187Y0074493D02*
X0205216Y0074493D01*
X0205184Y0072894D02*
X0210602Y0072894D01*
X0210678Y0071296D02*
X0204305Y0071296D01*
X0204230Y0069697D02*
X0211517Y0069697D01*
X0205161Y0068099D02*
X0248717Y0068099D01*
X0248717Y0068813D02*
X0248717Y0067361D01*
X0249273Y0066019D01*
X0250300Y0064992D01*
X0251641Y0064437D01*
X0253093Y0064437D01*
X0254435Y0064992D01*
X0255462Y0066019D01*
X0256017Y0067361D01*
X0256017Y0068813D01*
X0255462Y0070154D01*
X0254435Y0071181D01*
X0253093Y0071737D01*
X0251641Y0071737D01*
X0250300Y0071181D01*
X0249273Y0070154D01*
X0248717Y0068813D01*
X0249084Y0069697D02*
X0247737Y0069697D01*
X0248576Y0071296D02*
X0250577Y0071296D01*
X0250527Y0072894D02*
X0248652Y0072894D01*
X0249075Y0074493D02*
X0248067Y0074493D01*
X0254208Y0072894D02*
X0270527Y0072894D01*
X0270300Y0072988D02*
X0271641Y0072433D01*
X0273093Y0072433D01*
X0274435Y0072988D01*
X0275462Y0074015D01*
X0276017Y0075357D01*
X0276017Y0076809D01*
X0275462Y0078150D01*
X0274435Y0079177D01*
X0273093Y0079733D01*
X0271641Y0079733D01*
X0270300Y0079177D01*
X0269273Y0078150D01*
X0268717Y0076809D01*
X0268717Y0075357D01*
X0269273Y0074015D01*
X0270300Y0072988D01*
X0270449Y0071676D02*
X0269786Y0071232D01*
X0269221Y0070668D01*
X0268778Y0070005D01*
X0268473Y0069268D01*
X0268317Y0068486D01*
X0268317Y0068087D01*
X0272367Y0068087D01*
X0272367Y0072137D01*
X0271968Y0072137D01*
X0271186Y0071981D01*
X0270449Y0071676D01*
X0269880Y0071296D02*
X0254157Y0071296D01*
X0255651Y0069697D02*
X0268651Y0069697D01*
X0268317Y0068099D02*
X0256017Y0068099D01*
X0255661Y0066500D02*
X0268641Y0066500D01*
X0268778Y0066168D02*
X0269221Y0065505D01*
X0269786Y0064941D01*
X0270449Y0064498D01*
X0271186Y0064192D01*
X0271968Y0064037D01*
X0272367Y0064037D01*
X0272367Y0068086D01*
X0272367Y0068086D01*
X0272367Y0068087D02*
X0268317Y0068087D01*
X0268317Y0067688D01*
X0268473Y0066905D01*
X0268778Y0066168D01*
X0269844Y0064902D02*
X0254216Y0064902D01*
X0250518Y0064902D02*
X0247697Y0064902D01*
X0249074Y0066500D02*
X0205246Y0066500D01*
X0210602Y0061705D02*
X0184929Y0061705D01*
X0185649Y0060106D02*
X0211171Y0060106D01*
X0213215Y0058508D02*
X0185664Y0058508D01*
X0184981Y0056909D02*
X0249584Y0056909D01*
X0248652Y0055484D02*
X0247832Y0056305D01*
X0241422Y0056305D01*
X0240602Y0055484D01*
X0240602Y0049075D01*
X0241422Y0048255D01*
X0247832Y0048255D01*
X0248639Y0049062D01*
X0248962Y0048283D01*
X0249989Y0047256D01*
X0251330Y0046700D01*
X0252782Y0046700D01*
X0254124Y0047256D01*
X0255151Y0048283D01*
X0255706Y0049624D01*
X0255706Y0051076D01*
X0255151Y0052418D01*
X0254124Y0053445D01*
X0252782Y0054000D01*
X0251330Y0054000D01*
X0249989Y0053445D01*
X0248962Y0052418D01*
X0248652Y0051670D01*
X0248652Y0055484D01*
X0248652Y0055311D02*
X0289741Y0055311D01*
X0288926Y0053712D02*
X0291339Y0053712D01*
X0290140Y0053209D02*
X0291198Y0052151D01*
X0291771Y0050768D01*
X0291771Y0049271D01*
X0291198Y0047889D01*
X0290140Y0046830D01*
X0288757Y0046257D01*
X0287261Y0046257D01*
X0285878Y0046830D01*
X0284820Y0047889D01*
X0284247Y0049271D01*
X0284247Y0050768D01*
X0284820Y0052151D01*
X0285878Y0053209D01*
X0287261Y0053782D01*
X0288757Y0053782D01*
X0290140Y0053209D01*
X0291214Y0052114D02*
X0292234Y0052114D01*
X0292234Y0050515D02*
X0291771Y0050515D01*
X0291624Y0048917D02*
X0292234Y0048917D01*
X0292234Y0047318D02*
X0290628Y0047318D01*
X0292234Y0045720D02*
X0232653Y0045720D01*
X0232653Y0047318D02*
X0249927Y0047318D01*
X0248699Y0048917D02*
X0248494Y0048917D01*
X0254186Y0047318D02*
X0269927Y0047318D01*
X0269989Y0047256D02*
X0271330Y0046700D01*
X0272782Y0046700D01*
X0274124Y0047256D01*
X0275151Y0048283D01*
X0275706Y0049624D01*
X0275706Y0051076D01*
X0275151Y0052418D01*
X0274124Y0053445D01*
X0272782Y0054000D01*
X0271330Y0054000D01*
X0269989Y0053445D01*
X0268962Y0052418D01*
X0268406Y0051076D01*
X0268406Y0049624D01*
X0268962Y0048283D01*
X0269989Y0047256D01*
X0268699Y0048917D02*
X0255413Y0048917D01*
X0255706Y0050515D02*
X0268406Y0050515D01*
X0268836Y0052114D02*
X0255277Y0052114D01*
X0253478Y0053712D02*
X0270635Y0053712D01*
X0271330Y0055948D02*
X0272782Y0055948D01*
X0274124Y0056504D01*
X0275151Y0057531D01*
X0275706Y0058872D01*
X0275706Y0060324D01*
X0275151Y0061666D01*
X0274124Y0062693D01*
X0272782Y0063248D01*
X0271330Y0063248D01*
X0269989Y0062693D01*
X0268962Y0061666D01*
X0268406Y0060324D01*
X0268406Y0058872D01*
X0268962Y0057531D01*
X0269989Y0056504D01*
X0271330Y0055948D01*
X0269584Y0056909D02*
X0254529Y0056909D01*
X0255555Y0058508D02*
X0268557Y0058508D01*
X0268406Y0060106D02*
X0255706Y0060106D01*
X0255112Y0061705D02*
X0269001Y0061705D01*
X0272367Y0064037D02*
X0272766Y0064037D01*
X0273549Y0064192D01*
X0274286Y0064498D01*
X0274949Y0064941D01*
X0275513Y0065505D01*
X0275956Y0066168D01*
X0276262Y0066905D01*
X0276417Y0067688D01*
X0276417Y0068087D01*
X0276417Y0068486D01*
X0276262Y0069268D01*
X0275956Y0070005D01*
X0275513Y0070668D01*
X0274949Y0071232D01*
X0274286Y0071676D01*
X0273549Y0071981D01*
X0272766Y0072137D01*
X0272367Y0072137D01*
X0272367Y0068087D01*
X0272367Y0068087D01*
X0272367Y0068087D01*
X0276417Y0068087D01*
X0272367Y0068087D01*
X0272367Y0068087D01*
X0272367Y0068086D02*
X0272367Y0064037D01*
X0272367Y0064902D02*
X0272367Y0064902D01*
X0272367Y0066500D02*
X0272367Y0066500D01*
X0272367Y0068099D02*
X0272367Y0068099D01*
X0272367Y0069697D02*
X0272367Y0069697D01*
X0272367Y0071296D02*
X0272367Y0071296D01*
X0274208Y0072894D02*
X0323333Y0072894D01*
X0323333Y0071296D02*
X0316217Y0071296D01*
X0315402Y0072111D02*
X0312254Y0072111D01*
X0310028Y0069885D01*
X0310028Y0066737D01*
X0312254Y0064511D01*
X0315402Y0064511D01*
X0317628Y0066737D01*
X0317628Y0069885D01*
X0315402Y0072111D01*
X0317628Y0069697D02*
X0323333Y0069697D01*
X0323333Y0068099D02*
X0317628Y0068099D01*
X0317391Y0066500D02*
X0323333Y0066500D01*
X0323333Y0064902D02*
X0315793Y0064902D01*
X0311863Y0064902D02*
X0274891Y0064902D01*
X0276094Y0066500D02*
X0310265Y0066500D01*
X0310028Y0068099D02*
X0276417Y0068099D01*
X0276084Y0069697D02*
X0310028Y0069697D01*
X0311439Y0071296D02*
X0274854Y0071296D01*
X0275660Y0074493D02*
X0281160Y0074493D01*
X0281038Y0074575D02*
X0281701Y0074131D01*
X0282438Y0073826D01*
X0283220Y0073670D01*
X0283619Y0073670D01*
X0283619Y0077720D01*
X0283619Y0077720D01*
X0279569Y0077720D01*
X0279569Y0077322D01*
X0279725Y0076539D01*
X0280030Y0075802D01*
X0280473Y0075139D01*
X0281038Y0074575D01*
X0279910Y0076091D02*
X0276017Y0076091D01*
X0275652Y0077690D02*
X0279569Y0077690D01*
X0279569Y0077721D02*
X0283619Y0077721D01*
X0283619Y0081770D01*
X0283220Y0081770D01*
X0282438Y0081615D01*
X0281701Y0081310D01*
X0281038Y0080866D01*
X0280473Y0080302D01*
X0280030Y0079639D01*
X0279725Y0078902D01*
X0279569Y0078119D01*
X0279569Y0077721D01*
X0279885Y0079288D02*
X0274166Y0079288D01*
X0270569Y0079288D02*
X0254166Y0079288D01*
X0255652Y0077690D02*
X0269082Y0077690D01*
X0268717Y0076091D02*
X0256017Y0076091D01*
X0255660Y0074493D02*
X0269075Y0074493D01*
X0281068Y0080887D02*
X0248407Y0080887D01*
X0248652Y0081479D02*
X0248039Y0080000D01*
X0246907Y0078867D01*
X0245428Y0078255D01*
X0243827Y0078255D01*
X0242347Y0078867D01*
X0241215Y0080000D01*
X0240602Y0081479D01*
X0240602Y0083080D01*
X0241215Y0084559D01*
X0242347Y0085692D01*
X0243827Y0086305D01*
X0245428Y0086305D01*
X0246907Y0085692D01*
X0248039Y0084559D01*
X0248652Y0083080D01*
X0248652Y0081479D01*
X0248652Y0082485D02*
X0323333Y0082485D01*
X0323333Y0080887D02*
X0316626Y0080887D01*
X0317628Y0079885D02*
X0315402Y0082111D01*
X0312254Y0082111D01*
X0310028Y0079885D01*
X0310028Y0076737D01*
X0312254Y0074511D01*
X0315402Y0074511D01*
X0317628Y0076737D01*
X0317628Y0079885D01*
X0317628Y0079288D02*
X0323333Y0079288D01*
X0323333Y0077690D02*
X0317628Y0077690D01*
X0316982Y0076091D02*
X0323333Y0076091D01*
X0323333Y0074493D02*
X0305365Y0074493D01*
X0305687Y0074626D02*
X0306714Y0075653D01*
X0307269Y0076994D01*
X0307269Y0078447D01*
X0306714Y0079788D01*
X0305687Y0080815D01*
X0304345Y0081370D01*
X0302893Y0081370D01*
X0301552Y0080815D01*
X0300525Y0079788D01*
X0299969Y0078447D01*
X0299969Y0076994D01*
X0300525Y0075653D01*
X0301552Y0074626D01*
X0302893Y0074070D01*
X0304345Y0074070D01*
X0305687Y0074626D01*
X0306895Y0076091D02*
X0310674Y0076091D01*
X0310028Y0077690D02*
X0307269Y0077690D01*
X0306921Y0079288D02*
X0310028Y0079288D01*
X0311030Y0080887D02*
X0305513Y0080887D01*
X0301726Y0080887D02*
X0286170Y0080887D01*
X0286201Y0080866D02*
X0285538Y0081310D01*
X0284801Y0081615D01*
X0284018Y0081770D01*
X0283619Y0081770D01*
X0283619Y0077721D01*
X0283619Y0077721D01*
X0283619Y0077720D01*
X0283619Y0073670D01*
X0284018Y0073670D01*
X0284801Y0073826D01*
X0285538Y0074131D01*
X0286201Y0074575D01*
X0286765Y0075139D01*
X0287208Y0075802D01*
X0287514Y0076539D01*
X0287669Y0077322D01*
X0287669Y0077720D01*
X0283619Y0077720D01*
X0283619Y0077721D01*
X0287669Y0077721D01*
X0287669Y0078119D01*
X0287514Y0078902D01*
X0287208Y0079639D01*
X0286765Y0080302D01*
X0286201Y0080866D01*
X0287354Y0079288D02*
X0300318Y0079288D01*
X0299969Y0077690D02*
X0287669Y0077690D01*
X0287328Y0076091D02*
X0300343Y0076091D01*
X0301873Y0074493D02*
X0286079Y0074493D01*
X0283619Y0074493D02*
X0283619Y0074493D01*
X0283619Y0076091D02*
X0283619Y0076091D01*
X0283619Y0077690D02*
X0283619Y0077690D01*
X0283619Y0079288D02*
X0283619Y0079288D01*
X0283619Y0080887D02*
X0283619Y0080887D01*
X0286535Y0087692D02*
X0291435Y0087692D01*
X0292255Y0088512D01*
X0292255Y0093412D01*
X0291435Y0094232D01*
X0286535Y0094232D01*
X0285715Y0093412D01*
X0285715Y0088512D01*
X0286535Y0087692D01*
X0285715Y0088879D02*
X0256892Y0088879D01*
X0256768Y0088755D02*
X0258994Y0090981D01*
X0258994Y0094129D01*
X0256768Y0096355D01*
X0253620Y0096355D01*
X0251394Y0094129D01*
X0251394Y0090981D01*
X0253620Y0088755D01*
X0256768Y0088755D01*
X0258491Y0090478D02*
X0285715Y0090478D01*
X0285715Y0092076D02*
X0258994Y0092076D01*
X0258994Y0093675D02*
X0285977Y0093675D01*
X0291992Y0093675D02*
X0306192Y0093675D01*
X0306330Y0093813D02*
X0305819Y0093302D01*
X0305417Y0092701D01*
X0305141Y0092033D01*
X0305000Y0091324D01*
X0305000Y0090962D01*
X0305000Y0090601D01*
X0305141Y0089892D01*
X0305417Y0089224D01*
X0305819Y0088623D01*
X0306330Y0088111D01*
X0306931Y0087710D01*
X0307599Y0087433D01*
X0308308Y0087292D01*
X0308670Y0087292D01*
X0309031Y0087292D01*
X0309740Y0087433D01*
X0310408Y0087710D01*
X0311009Y0088111D01*
X0311520Y0088623D01*
X0311922Y0089224D01*
X0312199Y0089892D01*
X0312340Y0090601D01*
X0312340Y0090962D01*
X0308670Y0090962D01*
X0308670Y0090962D01*
X0308670Y0087292D01*
X0308670Y0090962D01*
X0308670Y0090962D01*
X0312340Y0090962D01*
X0312340Y0091324D01*
X0312199Y0092033D01*
X0311922Y0092701D01*
X0311520Y0093302D01*
X0311009Y0093813D01*
X0310408Y0094215D01*
X0309740Y0094491D01*
X0309031Y0094632D01*
X0308670Y0094632D01*
X0308670Y0090962D01*
X0308670Y0090962D01*
X0305000Y0090962D01*
X0308670Y0090962D01*
X0308670Y0090962D01*
X0308670Y0094632D01*
X0308308Y0094632D01*
X0307599Y0094491D01*
X0306931Y0094215D01*
X0306330Y0093813D01*
X0305159Y0092076D02*
X0292255Y0092076D01*
X0292255Y0090478D02*
X0305024Y0090478D01*
X0305647Y0088879D02*
X0292255Y0088879D01*
X0308670Y0088879D02*
X0308670Y0088879D01*
X0308670Y0090478D02*
X0308670Y0090478D01*
X0308670Y0092076D02*
X0308670Y0092076D01*
X0308670Y0093675D02*
X0308670Y0093675D01*
X0311147Y0093675D02*
X0323333Y0093675D01*
X0323333Y0092076D02*
X0312181Y0092076D01*
X0312315Y0090478D02*
X0323333Y0090478D01*
X0323333Y0088879D02*
X0311692Y0088879D01*
X0323333Y0087281D02*
X0243751Y0087281D01*
X0243490Y0087020D02*
X0244517Y0088047D01*
X0245072Y0089388D01*
X0245072Y0090840D01*
X0244517Y0092182D01*
X0243490Y0093208D01*
X0242148Y0093764D01*
X0240696Y0093764D01*
X0239355Y0093208D01*
X0238328Y0092182D01*
X0237772Y0090840D01*
X0237772Y0089388D01*
X0238328Y0088047D01*
X0239355Y0087020D01*
X0240696Y0086464D01*
X0242148Y0086464D01*
X0243490Y0087020D01*
X0242338Y0085682D02*
X0216916Y0085682D01*
X0217645Y0087281D02*
X0226291Y0087281D01*
X0226013Y0087558D02*
X0227040Y0086532D01*
X0228381Y0085976D01*
X0229834Y0085976D01*
X0231175Y0086532D01*
X0232202Y0087558D01*
X0232757Y0088900D01*
X0232757Y0090352D01*
X0232202Y0091694D01*
X0231175Y0092720D01*
X0229834Y0093276D01*
X0228381Y0093276D01*
X0227040Y0092720D01*
X0226013Y0091694D01*
X0225457Y0090352D01*
X0225457Y0088900D01*
X0226013Y0087558D01*
X0225466Y0088879D02*
X0218511Y0088879D01*
X0218526Y0090478D02*
X0225510Y0090478D01*
X0226396Y0092076D02*
X0217681Y0092076D01*
X0218236Y0084084D02*
X0241018Y0084084D01*
X0240602Y0082485D02*
X0218652Y0082485D01*
X0218407Y0080887D02*
X0240847Y0080887D01*
X0241926Y0079288D02*
X0217328Y0079288D01*
X0211926Y0079288D02*
X0205133Y0079288D01*
X0205230Y0080887D02*
X0210847Y0080887D01*
X0210602Y0082485D02*
X0204504Y0082485D01*
X0191096Y0095274D02*
X0252538Y0095274D01*
X0251394Y0093675D02*
X0242364Y0093675D01*
X0240481Y0093675D02*
X0168514Y0093675D01*
X0167079Y0093675D02*
X0147568Y0093675D01*
X0146057Y0093675D02*
X0127662Y0093675D01*
X0128694Y0095274D02*
X0143947Y0095274D01*
X0143542Y0096872D02*
X0128709Y0096872D01*
X0127699Y0098471D02*
X0143923Y0098471D01*
X0149702Y0098471D02*
X0164900Y0098471D01*
X0164526Y0096872D02*
X0150082Y0096872D01*
X0149677Y0095274D02*
X0164938Y0095274D01*
X0170655Y0095274D02*
X0186292Y0095274D01*
X0185424Y0096872D02*
X0171067Y0096872D01*
X0170693Y0098471D02*
X0185558Y0098471D01*
X0191964Y0096872D02*
X0323333Y0096872D01*
X0323333Y0095274D02*
X0257850Y0095274D01*
X0251394Y0092076D02*
X0244560Y0092076D01*
X0245072Y0090478D02*
X0251897Y0090478D01*
X0253496Y0088879D02*
X0244862Y0088879D01*
X0246916Y0085682D02*
X0323333Y0085682D01*
X0323333Y0084084D02*
X0248236Y0084084D01*
X0247328Y0079288D02*
X0250569Y0079288D01*
X0239094Y0087281D02*
X0231924Y0087281D01*
X0232749Y0088879D02*
X0237983Y0088879D01*
X0237772Y0090478D02*
X0232705Y0090478D01*
X0231819Y0092076D02*
X0238285Y0092076D01*
X0244899Y0111259D02*
X0251394Y0111259D01*
X0251394Y0112857D02*
X0243841Y0112857D01*
X0272962Y0114456D02*
X0301221Y0114456D01*
X0303395Y0112857D02*
X0274682Y0112857D01*
X0318590Y0114456D02*
X0323333Y0114456D01*
X0323333Y0116054D02*
X0319279Y0116054D01*
X0319306Y0117653D02*
X0323333Y0117653D01*
X0323333Y0119251D02*
X0319306Y0119251D01*
X0319306Y0120850D02*
X0323333Y0120850D01*
X0323333Y0122448D02*
X0319306Y0122448D01*
X0319232Y0124047D02*
X0323333Y0124047D01*
X0323333Y0125645D02*
X0318477Y0125645D01*
X0323333Y0130441D02*
X0035584Y0130441D01*
X0035584Y0132039D02*
X0323333Y0132039D01*
X0323333Y0140032D02*
X0305721Y0140032D01*
X0307230Y0141630D02*
X0323333Y0141630D01*
X0323333Y0143229D02*
X0307511Y0143229D01*
X0306996Y0144827D02*
X0323333Y0144827D01*
X0323333Y0149623D02*
X0035584Y0149623D01*
X0035584Y0151221D02*
X0323333Y0151221D01*
X0323333Y0103266D02*
X0035584Y0103266D01*
X0035584Y0101668D02*
X0323333Y0101668D01*
X0284700Y0061705D02*
X0275112Y0061705D01*
X0275706Y0060106D02*
X0284247Y0060106D01*
X0284498Y0058508D02*
X0275555Y0058508D01*
X0274529Y0056909D02*
X0285641Y0056909D01*
X0288387Y0059776D02*
X0294434Y0053728D01*
X0294434Y0044657D01*
X0304513Y0034579D01*
X0304513Y0010390D01*
X0301799Y0012151D02*
X0297148Y0012151D01*
X0292934Y0013749D02*
X0302313Y0013749D01*
X0302313Y0015348D02*
X0291335Y0015348D01*
X0290209Y0016946D02*
X0302313Y0016946D01*
X0302313Y0018545D02*
X0291275Y0018545D01*
X0291771Y0020143D02*
X0302313Y0020143D01*
X0302313Y0021742D02*
X0291564Y0021742D01*
X0284887Y0028136D02*
X0208232Y0028136D01*
X0208232Y0029735D02*
X0284247Y0029735D01*
X0284350Y0031333D02*
X0120242Y0031333D01*
X0120950Y0029735D02*
X0131326Y0029735D01*
X0131300Y0029635D02*
X0131300Y0027528D01*
X0134970Y0027528D01*
X0134970Y0027528D01*
X0134970Y0031198D01*
X0137077Y0031198D01*
X0137535Y0031075D01*
X0137945Y0030838D01*
X0138280Y0030503D01*
X0138517Y0030092D01*
X0138640Y0029635D01*
X0138640Y0027528D01*
X0134970Y0027528D01*
X0134970Y0027527D01*
X0134970Y0023857D01*
X0137077Y0023857D01*
X0137535Y0023980D01*
X0137945Y0024217D01*
X0138280Y0024552D01*
X0138517Y0024963D01*
X0138640Y0025420D01*
X0138640Y0027527D01*
X0134970Y0027527D01*
X0134970Y0027527D01*
X0134970Y0023857D01*
X0132863Y0023857D01*
X0132405Y0023980D01*
X0131994Y0024217D01*
X0131659Y0024552D01*
X0131422Y0024963D01*
X0131300Y0025420D01*
X0131300Y0027527D01*
X0134970Y0027527D01*
X0134970Y0027528D01*
X0134970Y0031198D01*
X0132863Y0031198D01*
X0132405Y0031075D01*
X0131994Y0030838D01*
X0131659Y0030503D01*
X0131422Y0030092D01*
X0131300Y0029635D01*
X0131300Y0028136D02*
X0120727Y0028136D01*
X0119395Y0026538D02*
X0131300Y0026538D01*
X0131436Y0024939D02*
X0068186Y0024939D01*
X0068395Y0020143D02*
X0215180Y0020143D01*
X0214778Y0018545D02*
X0068138Y0018545D01*
X0066962Y0016946D02*
X0215032Y0016946D01*
X0216119Y0015348D02*
X0035584Y0015348D01*
X0035584Y0016946D02*
X0042528Y0016946D01*
X0041352Y0018545D02*
X0035584Y0018545D01*
X0035584Y0020143D02*
X0041095Y0020143D01*
X0041561Y0021742D02*
X0035584Y0021742D01*
X0035584Y0023341D02*
X0042414Y0023341D01*
X0041305Y0024939D02*
X0035584Y0024939D01*
X0035584Y0026538D02*
X0041095Y0026538D01*
X0041609Y0028136D02*
X0035584Y0028136D01*
X0047882Y0028136D02*
X0061609Y0028136D01*
X0061095Y0026538D02*
X0048395Y0026538D01*
X0048186Y0024939D02*
X0061305Y0024939D01*
X0062414Y0023341D02*
X0047077Y0023341D01*
X0047929Y0021742D02*
X0061561Y0021742D01*
X0061095Y0020143D02*
X0048395Y0020143D01*
X0048138Y0018545D02*
X0061352Y0018545D01*
X0062528Y0016946D02*
X0046962Y0016946D01*
X0035584Y0013749D02*
X0286711Y0013749D01*
X0288310Y0012151D02*
X0035584Y0012151D01*
X0035584Y0010552D02*
X0289908Y0010552D01*
X0291507Y0008954D02*
X0035584Y0008954D01*
X0035584Y0007355D02*
X0293447Y0007355D01*
X0259889Y0016946D02*
X0250723Y0016946D01*
X0251600Y0017824D02*
X0249374Y0015598D01*
X0246226Y0015598D01*
X0244000Y0017824D01*
X0244000Y0020972D01*
X0246226Y0023198D01*
X0249374Y0023198D01*
X0251600Y0020972D01*
X0251600Y0017824D01*
X0251600Y0018545D02*
X0258686Y0018545D01*
X0258410Y0020143D02*
X0251600Y0020143D01*
X0250830Y0021742D02*
X0258857Y0021742D01*
X0244771Y0021742D02*
X0238430Y0021742D01*
X0239122Y0020143D02*
X0244000Y0020143D01*
X0244000Y0018545D02*
X0239113Y0018545D01*
X0238401Y0016946D02*
X0244878Y0016946D01*
X0235147Y0016946D02*
X0235147Y0016946D01*
X0235147Y0018545D02*
X0235147Y0018545D01*
X0235147Y0020143D02*
X0235147Y0020143D01*
X0235147Y0021742D02*
X0235147Y0021742D01*
X0231863Y0021742D02*
X0229929Y0021742D01*
X0231115Y0020143D02*
X0231172Y0020143D01*
X0230921Y0016946D02*
X0231893Y0016946D01*
X0224538Y0016946D02*
X0222624Y0016946D01*
X0222878Y0018545D02*
X0224080Y0018545D01*
X0224344Y0020143D02*
X0222475Y0020143D01*
X0221065Y0021742D02*
X0225530Y0021742D01*
X0202059Y0024939D02*
X0187021Y0024939D01*
X0187129Y0024984D02*
X0188049Y0025904D01*
X0188547Y0027105D01*
X0188547Y0028406D01*
X0188049Y0029608D01*
X0187129Y0030528D01*
X0185927Y0031026D01*
X0184626Y0031026D01*
X0183424Y0030528D01*
X0183037Y0030141D01*
X0182321Y0030857D01*
X0177421Y0030857D01*
X0176601Y0030037D01*
X0176601Y0025137D01*
X0177421Y0024317D01*
X0182321Y0024317D01*
X0183141Y0025137D01*
X0183141Y0025267D01*
X0183424Y0024984D01*
X0184626Y0024486D01*
X0185927Y0024486D01*
X0187129Y0024984D01*
X0188312Y0026538D02*
X0201692Y0026538D01*
X0201692Y0028136D02*
X0188547Y0028136D01*
X0187923Y0029735D02*
X0201692Y0029735D01*
X0215734Y0036299D02*
X0215178Y0037640D01*
X0215178Y0039092D01*
X0215734Y0040434D01*
X0216760Y0041460D01*
X0218102Y0042016D01*
X0219554Y0042016D01*
X0220896Y0041460D01*
X0221922Y0040434D01*
X0222478Y0039092D01*
X0222478Y0037640D01*
X0221922Y0036299D01*
X0220896Y0035272D01*
X0219554Y0034716D01*
X0218102Y0034716D01*
X0216760Y0035272D01*
X0215734Y0036299D01*
X0215904Y0036129D02*
X0133133Y0036129D01*
X0133222Y0036166D02*
X0134249Y0037192D01*
X0134805Y0038534D01*
X0134805Y0039986D01*
X0134249Y0041327D01*
X0133222Y0042354D01*
X0131881Y0042910D01*
X0130429Y0042910D01*
X0129087Y0042354D01*
X0128060Y0041327D01*
X0127505Y0039986D01*
X0127505Y0038534D01*
X0128060Y0037192D01*
X0129087Y0036166D01*
X0130429Y0035610D01*
X0131881Y0035610D01*
X0133222Y0036166D01*
X0134471Y0037727D02*
X0215178Y0037727D01*
X0215275Y0039326D02*
X0134805Y0039326D01*
X0134416Y0040924D02*
X0216224Y0040924D01*
X0221432Y0040924D02*
X0224712Y0040924D01*
X0224080Y0039326D02*
X0222381Y0039326D01*
X0222478Y0037727D02*
X0224215Y0037727D01*
X0225219Y0036129D02*
X0221752Y0036129D01*
X0230240Y0036129D02*
X0233425Y0036129D01*
X0231875Y0037727D02*
X0231244Y0037727D01*
X0231380Y0039326D02*
X0231497Y0039326D01*
X0228897Y0042523D02*
X0132816Y0042523D01*
X0129494Y0042523D02*
X0112816Y0042523D01*
X0114416Y0040924D02*
X0127893Y0040924D01*
X0127505Y0039326D02*
X0114805Y0039326D01*
X0114471Y0037727D02*
X0127839Y0037727D01*
X0129176Y0036129D02*
X0113133Y0036129D01*
X0109868Y0032932D02*
X0285285Y0032932D01*
X0296655Y0039326D02*
X0265710Y0039326D01*
X0265710Y0039211D02*
X0265155Y0037869D01*
X0264128Y0036843D01*
X0262786Y0036287D01*
X0261334Y0036287D01*
X0259993Y0036843D01*
X0258966Y0037869D01*
X0258410Y0039211D01*
X0258410Y0040663D01*
X0258966Y0042005D01*
X0259993Y0043031D01*
X0261334Y0043587D01*
X0262786Y0043587D01*
X0264128Y0043031D01*
X0265155Y0042005D01*
X0265710Y0040663D01*
X0265710Y0039211D01*
X0265012Y0037727D02*
X0298253Y0037727D01*
X0299852Y0036129D02*
X0249905Y0036129D01*
X0249374Y0035598D02*
X0251600Y0037824D01*
X0251600Y0040972D01*
X0249374Y0043198D01*
X0246226Y0043198D01*
X0244000Y0040972D01*
X0244000Y0037824D01*
X0246226Y0035598D01*
X0249374Y0035598D01*
X0251504Y0037727D02*
X0259108Y0037727D01*
X0258410Y0039326D02*
X0251600Y0039326D01*
X0251600Y0040924D02*
X0258518Y0040924D01*
X0259484Y0042523D02*
X0250049Y0042523D01*
X0245551Y0042523D02*
X0237064Y0042523D01*
X0238452Y0040924D02*
X0244000Y0040924D01*
X0244000Y0039326D02*
X0238797Y0039326D01*
X0238419Y0037727D02*
X0244097Y0037727D01*
X0245695Y0036129D02*
X0236869Y0036129D01*
X0233485Y0044121D02*
X0292234Y0044121D01*
X0293458Y0042523D02*
X0264636Y0042523D01*
X0265602Y0040924D02*
X0295056Y0040924D01*
X0299680Y0042523D02*
X0304253Y0042523D01*
X0303598Y0040924D02*
X0301279Y0040924D01*
X0302877Y0039326D02*
X0303615Y0039326D01*
X0307694Y0039326D02*
X0307694Y0039326D01*
X0307694Y0040924D02*
X0307694Y0040924D01*
X0307694Y0042523D02*
X0307694Y0042523D01*
X0307694Y0037727D02*
X0307694Y0037727D01*
X0285390Y0047318D02*
X0274186Y0047318D01*
X0275413Y0048917D02*
X0284394Y0048917D01*
X0284247Y0050515D02*
X0275706Y0050515D01*
X0275277Y0052114D02*
X0284804Y0052114D01*
X0287093Y0053712D02*
X0273478Y0053712D01*
X0250635Y0053712D02*
X0248652Y0053712D01*
X0248652Y0052114D02*
X0248836Y0052114D01*
X0240602Y0052114D02*
X0218652Y0052114D01*
X0218390Y0053712D02*
X0240602Y0053712D01*
X0240602Y0055311D02*
X0217288Y0055311D01*
X0218253Y0050515D02*
X0240602Y0050515D01*
X0240760Y0048917D02*
X0232158Y0048917D01*
X0181686Y0056909D02*
X0181686Y0056909D01*
X0181686Y0058508D02*
X0181686Y0058508D01*
X0181686Y0060106D02*
X0181686Y0060106D01*
X0181686Y0061705D02*
X0181686Y0061705D01*
X0178444Y0061705D02*
X0164411Y0061705D01*
X0165290Y0060106D02*
X0177724Y0060106D01*
X0177708Y0058508D02*
X0165322Y0058508D01*
X0164490Y0056909D02*
X0178391Y0056909D01*
X0178030Y0068099D02*
X0035584Y0068099D01*
X0035584Y0069697D02*
X0178962Y0069697D01*
X0178337Y0071296D02*
X0035584Y0071296D01*
X0047213Y0036129D02*
X0062277Y0036129D01*
X0061248Y0034530D02*
X0048242Y0034530D01*
X0048395Y0032932D02*
X0061095Y0032932D01*
X0061685Y0031333D02*
X0047806Y0031333D01*
X0109850Y0029735D02*
X0114588Y0029735D01*
X0115296Y0031333D02*
X0110252Y0031333D01*
X0134970Y0029735D02*
X0134970Y0029735D01*
X0134970Y0028136D02*
X0134970Y0028136D01*
X0134970Y0026538D02*
X0134970Y0026538D01*
X0134970Y0024939D02*
X0134970Y0024939D01*
X0138503Y0024939D02*
X0152619Y0024939D01*
X0152802Y0024755D02*
X0154004Y0024257D01*
X0155305Y0024257D01*
X0156507Y0024755D01*
X0157427Y0025675D01*
X0157440Y0025708D01*
X0158334Y0024814D01*
X0159536Y0024317D01*
X0160837Y0024317D01*
X0162039Y0024814D01*
X0162958Y0025734D01*
X0163456Y0026936D01*
X0163456Y0028237D01*
X0162958Y0029439D01*
X0162039Y0030359D01*
X0160837Y0030857D01*
X0159536Y0030857D01*
X0158334Y0030359D01*
X0157414Y0029439D01*
X0157400Y0029406D01*
X0156507Y0030300D01*
X0155305Y0030798D01*
X0154004Y0030798D01*
X0152802Y0030300D01*
X0151882Y0029380D01*
X0151385Y0028178D01*
X0151385Y0026877D01*
X0151882Y0025675D01*
X0152802Y0024755D01*
X0151525Y0026538D02*
X0138640Y0026538D01*
X0138640Y0028136D02*
X0151385Y0028136D01*
X0152237Y0029735D02*
X0138613Y0029735D01*
X0157072Y0029735D02*
X0157710Y0029735D01*
X0162663Y0029735D02*
X0176601Y0029735D01*
X0176601Y0028136D02*
X0163456Y0028136D01*
X0163291Y0026538D02*
X0176601Y0026538D01*
X0176799Y0024939D02*
X0162163Y0024939D01*
X0158209Y0024939D02*
X0156691Y0024939D01*
X0182944Y0024939D02*
X0183532Y0024939D01*
X0066632Y0152820D02*
X0035584Y0152820D01*
D26*
X0190111Y0085902D02*
X0199541Y0085902D01*
X0201509Y0083933D01*
X0201509Y0080319D01*
X0201580Y0080248D01*
X0226997Y0047516D02*
X0230466Y0047516D01*
X0230466Y0044047D01*
X0235147Y0039366D01*
M02*
