G75*
%MOIN*%
%OFA0B0*%
%FSLAX25Y25*%
%IPPOS*%
%LPD*%
%AMOC8*
5,1,8,0,0,1.08239X$1,22.5*
%
%ADD10C,0.00039*%
%ADD11R,0.03150X0.04724*%
%ADD12C,0.03740*%
%ADD13R,0.03740X0.03740*%
%ADD14R,0.04724X0.03150*%
%ADD15C,0.03937*%
%ADD16OC8,0.04800*%
%ADD17R,0.09843X0.01969*%
%ADD18R,0.09843X0.07874*%
%ADD19R,0.05250X0.05250*%
%ADD20C,0.05250*%
%ADD21C,0.04500*%
%ADD22R,0.05709X0.01181*%
%ADD23R,0.02400X0.08700*%
%ADD24R,0.05500X0.01370*%
%ADD25R,0.01772X0.03937*%
%ADD26R,0.03937X0.01772*%
%ADD27C,0.03500*%
%ADD28C,0.04724*%
%ADD29C,0.06000*%
%ADD30C,0.01969*%
%ADD31C,0.01575*%
%ADD32C,0.01378*%
%ADD33C,0.01181*%
%ADD34C,0.03562*%
%ADD35C,0.01500*%
%ADD36C,0.01600*%
%ADD37C,0.02000*%
%ADD38C,0.01772*%
%ADD39C,0.02362*%
%ADD40C,0.01476*%
%ADD41C,0.01300*%
D10*
X0030978Y0001256D02*
X0030978Y0158736D01*
X0326339Y0158736D01*
X0326339Y0001256D01*
X0030978Y0001256D01*
D11*
X0101419Y0044780D03*
X0108505Y0044780D03*
X0113379Y0045909D03*
X0120466Y0045909D03*
X0110485Y0064740D03*
X0103399Y0064740D03*
X0099060Y0064969D03*
X0091974Y0064969D03*
X0206312Y0041528D03*
X0213399Y0041528D03*
X0254525Y0082559D03*
X0261611Y0082559D03*
X0275851Y0100801D03*
X0282937Y0100801D03*
X0301264Y0105187D03*
X0308351Y0105187D03*
X0311638Y0131687D03*
X0304552Y0131687D03*
X0073167Y0137831D03*
X0066080Y0137831D03*
D12*
X0146812Y0096902D03*
X0167796Y0096917D03*
X0188694Y0097496D03*
X0304241Y0142958D03*
X0308670Y0090962D03*
X0185277Y0027756D03*
X0160186Y0027587D03*
X0154655Y0027528D03*
X0106981Y0031354D03*
D13*
X0087296Y0031354D03*
X0134970Y0027528D03*
X0179871Y0027587D03*
X0204962Y0027756D03*
X0288985Y0090962D03*
X0284556Y0142958D03*
X0188694Y0117181D03*
X0167796Y0116602D03*
X0146812Y0116587D03*
D14*
X0163123Y0086335D03*
X0163123Y0079248D03*
X0164107Y0047240D03*
X0164107Y0040154D03*
X0072588Y0067662D03*
X0072588Y0074749D03*
D15*
X0088139Y0091213D03*
X0097981Y0091213D03*
X0107332Y0125760D03*
X0117174Y0125760D03*
D16*
X0255194Y0112555D03*
X0255194Y0092555D03*
X0313828Y0078311D03*
X0313828Y0068311D03*
X0247800Y0039398D03*
X0247800Y0019398D03*
D17*
X0063375Y0054331D03*
X0063375Y0057480D03*
X0063375Y0060630D03*
X0063375Y0063780D03*
X0063375Y0066929D03*
D18*
X0063375Y0078346D03*
X0041722Y0078346D03*
X0041722Y0042913D03*
X0063375Y0042913D03*
D19*
X0244627Y0052280D03*
D20*
X0244627Y0062280D03*
X0244627Y0072280D03*
X0244627Y0082280D03*
X0214627Y0082280D03*
X0214627Y0072280D03*
X0214627Y0062280D03*
X0214627Y0052280D03*
D21*
X0218828Y0038366D03*
X0227730Y0038780D03*
X0235147Y0039366D03*
X0252056Y0050350D03*
X0252056Y0059598D03*
X0252367Y0068087D03*
X0252367Y0076083D03*
X0272367Y0076083D03*
X0283619Y0077720D03*
X0272367Y0068087D03*
X0272056Y0059598D03*
X0272056Y0050350D03*
X0262060Y0039937D03*
X0262060Y0019937D03*
X0235147Y0019366D03*
X0227730Y0018780D03*
X0218828Y0018366D03*
X0181686Y0059268D03*
X0181596Y0067169D03*
X0181580Y0073732D03*
X0181580Y0080248D03*
X0201580Y0080248D03*
X0201580Y0073732D03*
X0201596Y0067169D03*
X0214899Y0089697D03*
X0229107Y0089626D03*
X0241422Y0090114D03*
X0241422Y0110114D03*
X0229107Y0109626D03*
X0214899Y0109697D03*
X0303619Y0077720D03*
X0161686Y0059268D03*
X0131155Y0039260D03*
X0111155Y0039260D03*
X0118615Y0062331D03*
X0118615Y0082331D03*
X0108123Y0097791D03*
X0098123Y0097791D03*
X0098123Y0117791D03*
X0108123Y0117791D03*
X0064745Y0033435D03*
X0064745Y0026171D03*
X0064745Y0019891D03*
X0044745Y0019891D03*
X0044745Y0026171D03*
X0044745Y0033435D03*
D22*
X0093202Y0050567D03*
X0093202Y0052535D03*
X0093202Y0054504D03*
X0093202Y0056472D03*
X0093202Y0058441D03*
X0110919Y0058441D03*
X0110919Y0056472D03*
X0110919Y0054504D03*
X0110919Y0052535D03*
X0110919Y0050567D03*
D23*
X0282327Y0106918D03*
X0287327Y0106918D03*
X0292327Y0106918D03*
X0297327Y0106918D03*
X0297327Y0127518D03*
X0292327Y0127518D03*
X0287327Y0127518D03*
X0282327Y0127518D03*
D24*
X0155017Y0079425D03*
X0155017Y0076866D03*
X0155017Y0074307D03*
X0155017Y0071748D03*
X0155017Y0069189D03*
X0155017Y0066630D03*
X0155017Y0064071D03*
X0155017Y0061512D03*
X0155017Y0058953D03*
X0155017Y0056394D03*
X0155017Y0053835D03*
X0155017Y0051276D03*
X0155017Y0048717D03*
X0155017Y0046157D03*
X0126230Y0046157D03*
X0126230Y0048717D03*
X0126230Y0051276D03*
X0126230Y0053835D03*
X0126230Y0056394D03*
X0126230Y0058953D03*
X0126230Y0061512D03*
X0126230Y0064071D03*
X0126230Y0066630D03*
X0126230Y0069189D03*
X0126230Y0071748D03*
X0126230Y0074307D03*
X0126230Y0076866D03*
X0126230Y0079425D03*
D25*
X0081647Y0093953D03*
X0078497Y0093953D03*
X0075348Y0093953D03*
X0072198Y0093953D03*
X0069048Y0093953D03*
X0065899Y0093953D03*
X0062749Y0093953D03*
X0059600Y0093953D03*
X0059600Y0126630D03*
X0062749Y0126630D03*
X0065899Y0126630D03*
X0069048Y0126630D03*
X0072198Y0126630D03*
X0075348Y0126630D03*
X0078497Y0126630D03*
X0081647Y0126630D03*
D26*
X0086962Y0121315D03*
X0086962Y0118165D03*
X0086962Y0115016D03*
X0086962Y0111866D03*
X0086962Y0108717D03*
X0086962Y0105567D03*
X0086962Y0102417D03*
X0086962Y0099268D03*
X0054285Y0099268D03*
X0054285Y0102417D03*
X0054285Y0105567D03*
X0054285Y0108717D03*
X0054285Y0111866D03*
X0054285Y0115016D03*
X0054285Y0118165D03*
X0054285Y0121315D03*
D27*
X0125623Y0115291D03*
X0125623Y0096091D03*
D28*
X0288009Y0059862D03*
X0288009Y0050020D03*
X0307694Y0040177D03*
X0288009Y0030335D03*
X0288009Y0020492D03*
D29*
X0304906Y0116994D02*
X0304906Y0122994D01*
X0314906Y0122994D02*
X0314906Y0116994D01*
X0109481Y0083980D02*
X0109481Y0077980D01*
X0099481Y0077980D02*
X0099481Y0083980D01*
D30*
X0072588Y0067662D02*
X0071855Y0066929D01*
X0063375Y0066929D01*
X0063375Y0063780D02*
X0056769Y0063780D01*
X0055269Y0062280D01*
X0055269Y0034228D01*
X0056253Y0033244D01*
X0064555Y0033244D01*
X0064745Y0033435D01*
X0064745Y0026171D02*
X0075938Y0037364D01*
X0075938Y0060311D01*
X0075619Y0060630D01*
X0063375Y0060630D01*
X0063375Y0054331D02*
X0070942Y0054331D01*
X0071017Y0054406D01*
X0048871Y0037561D02*
X0044745Y0033435D01*
X0048871Y0037561D02*
X0048871Y0091807D01*
X0043458Y0097220D01*
X0043458Y0131669D01*
X0046903Y0135114D01*
X0061667Y0135114D01*
X0065899Y0130882D01*
X0065899Y0126630D01*
X0069048Y0126630D02*
X0069048Y0134862D01*
X0066080Y0137831D01*
X0072198Y0136862D02*
X0072198Y0126630D01*
X0062749Y0126630D02*
X0062749Y0129602D01*
X0060682Y0131669D01*
X0049363Y0131669D01*
X0046411Y0128717D01*
X0046411Y0098697D01*
X0051824Y0093283D01*
X0051824Y0028815D01*
X0049180Y0026171D01*
X0044745Y0026171D01*
X0044745Y0019891D02*
X0051570Y0013067D01*
X0080859Y0013067D01*
X0080859Y0013643D01*
X0080859Y0013067D02*
X0085289Y0013067D01*
X0097592Y0025370D01*
X0120230Y0041610D02*
X0120466Y0041846D01*
X0120466Y0045909D01*
X0172395Y0046531D02*
X0177399Y0041528D01*
X0206312Y0041528D01*
X0201430Y0015035D02*
X0204383Y0012083D01*
X0288537Y0012083D01*
X0314127Y0037673D01*
X0314127Y0068012D01*
X0313828Y0068311D01*
X0314745Y0068311D01*
X0319048Y0072614D01*
X0319048Y0115851D01*
X0314906Y0119994D01*
X0314906Y0128419D01*
X0311638Y0131687D01*
X0304906Y0119994D02*
X0297381Y0127518D01*
X0297327Y0127518D01*
X0292327Y0127518D02*
X0292327Y0133983D01*
X0301302Y0142958D01*
X0304241Y0142958D01*
X0284556Y0142958D02*
X0282327Y0140730D01*
X0282327Y0127518D01*
X0301264Y0106995D02*
X0305761Y0111492D01*
X0311174Y0111492D01*
X0314619Y0114937D01*
X0314619Y0119707D01*
X0314906Y0119994D01*
X0301264Y0106995D02*
X0301264Y0105187D01*
X0308351Y0105187D02*
X0308351Y0100665D01*
X0307859Y0100173D01*
X0288044Y0100173D01*
X0287327Y0100891D01*
X0287327Y0106918D01*
X0282937Y0100801D02*
X0282937Y0097009D01*
X0288985Y0090962D01*
X0307859Y0091773D02*
X0307859Y0100173D01*
X0307859Y0091773D02*
X0308670Y0090962D01*
X0304210Y0078311D02*
X0303619Y0077720D01*
X0304210Y0078311D02*
X0313828Y0078311D01*
X0294934Y0077535D02*
X0294934Y0047516D01*
X0292474Y0045055D01*
X0284107Y0045055D01*
X0280663Y0048500D01*
X0288009Y0059862D02*
X0287552Y0060319D01*
X0287552Y0080980D01*
X0188694Y0097496D02*
X0168375Y0097496D01*
X0167796Y0096917D01*
X0073167Y0137831D02*
X0072198Y0136862D01*
X0054285Y0123795D02*
X0051824Y0126256D01*
X0054285Y0123795D02*
X0054285Y0121315D01*
X0054285Y0118165D01*
X0049639Y0118165D01*
X0049363Y0117890D01*
X0049363Y0102417D01*
X0054285Y0102417D01*
X0064745Y0026171D02*
X0064745Y0019891D01*
X0279537Y0020492D02*
X0288009Y0020492D01*
D31*
X0251214Y0028815D02*
X0226115Y0028815D01*
X0223163Y0031768D01*
X0223163Y0056374D01*
X0217257Y0062280D01*
X0214627Y0062280D01*
X0186485Y0062280D01*
X0181596Y0067169D01*
X0194541Y0080772D02*
X0201580Y0073732D01*
X0201580Y0080248D02*
X0201580Y0092449D01*
X0213733Y0104602D01*
X0216686Y0104602D01*
X0225544Y0113461D01*
X0231450Y0113461D02*
X0234403Y0110508D01*
X0234403Y0104602D01*
X0246450Y0092555D01*
X0255194Y0092555D01*
X0241422Y0090114D02*
X0241422Y0087016D01*
X0238340Y0083933D01*
X0238340Y0058567D01*
X0244627Y0052280D01*
X0244627Y0048118D02*
X0248182Y0044563D01*
X0266269Y0044563D01*
X0272056Y0050350D01*
X0274265Y0054898D02*
X0280663Y0048500D01*
X0274265Y0054898D02*
X0268852Y0054898D01*
X0262454Y0061295D01*
X0262454Y0074630D01*
X0254525Y0082559D01*
X0244907Y0082559D01*
X0244627Y0082280D01*
X0229481Y0089252D02*
X0229481Y0065232D01*
X0233419Y0061295D01*
X0233419Y0051453D01*
X0235147Y0049724D01*
X0235147Y0039366D01*
X0237832Y0039366D01*
X0247800Y0039398D01*
X0227730Y0038780D02*
X0227730Y0059177D01*
X0214627Y0072280D01*
X0194541Y0080772D02*
X0194541Y0089839D01*
X0194541Y0091315D01*
X0209796Y0106571D01*
X0209796Y0111492D01*
X0214718Y0116413D01*
X0233419Y0116413D01*
X0237356Y0112476D01*
X0237356Y0105587D01*
X0248226Y0105587D01*
X0255194Y0112555D01*
X0255194Y0112354D01*
X0258025Y0117398D02*
X0243261Y0117398D01*
X0241422Y0115559D01*
X0241422Y0110114D01*
X0275851Y0100801D02*
X0275851Y0096619D01*
X0294934Y0077535D01*
X0272367Y0068087D02*
X0261611Y0078843D01*
X0261611Y0082559D01*
X0229481Y0089252D02*
X0229107Y0089626D01*
X0190111Y0085902D02*
X0181253Y0085902D01*
X0178300Y0082949D01*
X0102623Y0119791D02*
X0102513Y0119791D01*
X0102513Y0128224D01*
X0086962Y0128224D01*
X0086962Y0121315D01*
X0086962Y0118165D02*
X0089624Y0118165D01*
X0089998Y0117791D01*
X0090923Y0111866D02*
X0086962Y0111866D01*
X0090923Y0111866D02*
X0091248Y0111541D01*
X0078497Y0126630D02*
X0078497Y0129799D01*
X0079875Y0131177D01*
X0079875Y0135114D01*
X0083812Y0139051D01*
X0081190Y0143319D02*
X0076922Y0139051D01*
X0076922Y0132161D01*
X0075348Y0130587D01*
X0075348Y0126630D01*
X0086194Y0131177D02*
X0132009Y0131177D01*
X0087442Y0143319D02*
X0081190Y0143319D01*
X0072198Y0093953D02*
X0072198Y0091118D01*
X0073970Y0089346D01*
X0082828Y0089346D01*
X0093163Y0079012D01*
X0093163Y0076059D01*
X0089718Y0075075D02*
X0095623Y0069169D01*
X0089718Y0075075D02*
X0089718Y0078520D01*
X0084550Y0083687D01*
X0082828Y0085409D01*
X0071509Y0085409D01*
X0070033Y0086886D01*
X0068556Y0084425D02*
X0071017Y0081965D01*
X0071017Y0076320D01*
X0072588Y0074749D01*
X0080367Y0081965D02*
X0080859Y0081472D01*
X0080859Y0013643D01*
X0141883Y0032752D02*
X0155663Y0018972D01*
X0196509Y0018972D01*
X0197985Y0020449D01*
X0201430Y0015035D02*
X0204383Y0017988D01*
X0201430Y0015035D02*
X0154678Y0015035D01*
X0151726Y0017988D01*
X0141883Y0032752D02*
X0141883Y0034720D01*
X0218828Y0038366D02*
X0218828Y0027681D01*
X0227730Y0018780D01*
X0231474Y0015035D01*
X0243438Y0015035D01*
X0247800Y0019398D01*
X0301264Y0105187D02*
X0301264Y0106011D01*
X0287327Y0127518D02*
X0287327Y0137350D01*
X0297395Y0147417D01*
X0306253Y0147417D01*
X0308714Y0144957D01*
X0308714Y0135849D01*
X0304552Y0131687D01*
X0080367Y0081965D02*
X0071017Y0081965D01*
X0068556Y0084425D02*
X0060682Y0084425D01*
X0054560Y0090547D01*
X0054560Y0094051D01*
D32*
X0086962Y0099268D02*
X0088139Y0098091D01*
X0088139Y0091213D01*
X0097981Y0091213D02*
X0097981Y0097650D01*
X0098123Y0097791D01*
X0089718Y0108539D01*
X0087139Y0108539D01*
X0086962Y0108717D01*
X0091248Y0111541D02*
X0102513Y0100277D01*
X0102513Y0096728D01*
X0106450Y0092791D01*
X0109403Y0092791D01*
X0116248Y0099637D01*
X0116248Y0099666D01*
X0119593Y0096091D02*
X0125623Y0096091D01*
X0119593Y0096091D02*
X0112356Y0088854D01*
X0100340Y0088854D01*
X0097981Y0091213D01*
X0108123Y0097791D02*
X0108123Y0099666D01*
X0089998Y0117791D01*
X0079373Y0121541D02*
X0070810Y0121541D01*
X0069048Y0123303D01*
X0069048Y0126630D01*
X0081647Y0126630D02*
X0086194Y0131177D01*
X0087916Y0134813D02*
X0136278Y0134813D01*
X0137946Y0133146D01*
X0137946Y0067953D01*
X0136623Y0066630D01*
X0126230Y0066630D01*
X0126230Y0064071D02*
X0138903Y0064071D01*
X0138903Y0064220D01*
X0140899Y0066217D01*
X0140899Y0137791D01*
X0139639Y0139051D01*
X0083812Y0139051D01*
X0087442Y0135287D02*
X0087916Y0134813D01*
X0073167Y0137831D02*
X0073167Y0139854D01*
X0072985Y0141020D01*
X0117174Y0125760D02*
X0125623Y0117311D01*
X0125623Y0115291D01*
X0134993Y0128193D02*
X0134993Y0071177D01*
X0133005Y0069189D01*
X0132993Y0069201D01*
X0133005Y0069189D02*
X0126230Y0069189D01*
X0126230Y0071748D02*
X0097474Y0071748D01*
X0093163Y0076059D01*
X0109481Y0080980D02*
X0113340Y0076866D01*
X0112611Y0076866D01*
X0113340Y0076866D02*
X0118753Y0076866D01*
X0118753Y0082193D01*
X0118615Y0082331D01*
X0126230Y0079425D02*
X0130072Y0079425D01*
X0130072Y0084917D01*
X0127119Y0084917D01*
X0130072Y0079425D02*
X0131056Y0079425D01*
X0131056Y0074091D01*
X0130840Y0074307D01*
X0126230Y0074307D01*
X0126230Y0076866D02*
X0118753Y0076866D01*
X0112848Y0068677D02*
X0118615Y0062909D01*
X0118615Y0062331D01*
X0119041Y0061906D01*
X0119041Y0058953D01*
X0126230Y0061512D02*
X0132041Y0061512D01*
X0132041Y0056374D01*
X0126249Y0056374D01*
X0126230Y0056394D01*
X0126230Y0053835D01*
X0126230Y0051276D02*
X0120230Y0051276D01*
X0119245Y0051276D02*
X0119245Y0054406D01*
X0126230Y0046157D02*
X0131155Y0041232D01*
X0131155Y0039260D01*
X0137454Y0032260D02*
X0138930Y0033736D01*
X0138930Y0058343D01*
X0144836Y0064248D01*
X0147218Y0066630D01*
X0155017Y0066630D01*
X0155017Y0064071D02*
X0149580Y0064071D01*
X0141883Y0056374D01*
X0141883Y0034720D01*
X0145820Y0046531D02*
X0160092Y0032260D01*
X0170919Y0032260D01*
X0175592Y0027587D01*
X0179871Y0027587D01*
X0178793Y0032260D02*
X0170919Y0040134D01*
X0178300Y0047516D02*
X0174541Y0051276D01*
X0155017Y0051276D01*
X0155017Y0053835D02*
X0176745Y0053835D01*
X0176824Y0053913D01*
X0177808Y0052929D01*
X0208812Y0052929D01*
X0214627Y0052280D02*
X0214718Y0052189D01*
X0214718Y0041610D01*
X0214718Y0034720D01*
X0214226Y0034720D01*
X0212257Y0032752D01*
X0210289Y0032752D01*
X0209796Y0032260D01*
X0218828Y0038366D02*
X0219147Y0039150D01*
X0209796Y0023402D02*
X0204383Y0017988D01*
X0184206Y0022909D02*
X0164029Y0022909D01*
X0145820Y0046531D02*
X0145820Y0056374D01*
X0150958Y0061512D01*
X0155017Y0061512D01*
X0155017Y0058953D02*
X0161371Y0058953D01*
X0161686Y0059268D01*
X0155017Y0056394D02*
X0149777Y0056394D01*
X0149757Y0056374D01*
X0149757Y0048717D01*
X0155017Y0048717D01*
X0162631Y0048717D01*
X0162631Y0048716D02*
X0162706Y0048714D01*
X0162780Y0048708D01*
X0162855Y0048699D01*
X0162928Y0048686D01*
X0163001Y0048669D01*
X0163073Y0048648D01*
X0163144Y0048624D01*
X0163213Y0048596D01*
X0163281Y0048565D01*
X0163347Y0048531D01*
X0163412Y0048493D01*
X0163474Y0048451D01*
X0163534Y0048407D01*
X0163592Y0048360D01*
X0163648Y0048310D01*
X0163701Y0048257D01*
X0163751Y0048201D01*
X0163798Y0048143D01*
X0163842Y0048083D01*
X0163884Y0048021D01*
X0163922Y0047956D01*
X0163956Y0047890D01*
X0163987Y0047822D01*
X0164015Y0047753D01*
X0164039Y0047682D01*
X0164060Y0047610D01*
X0164077Y0047537D01*
X0164090Y0047464D01*
X0164099Y0047389D01*
X0164105Y0047315D01*
X0164107Y0047240D01*
X0164105Y0047315D01*
X0164099Y0047389D01*
X0164090Y0047464D01*
X0164077Y0047537D01*
X0164060Y0047610D01*
X0164039Y0047682D01*
X0164015Y0047753D01*
X0163987Y0047822D01*
X0163956Y0047890D01*
X0163922Y0047956D01*
X0163884Y0048021D01*
X0163842Y0048083D01*
X0163798Y0048143D01*
X0163751Y0048201D01*
X0163701Y0048257D01*
X0163648Y0048310D01*
X0163592Y0048360D01*
X0163534Y0048407D01*
X0163474Y0048451D01*
X0163412Y0048493D01*
X0163347Y0048531D01*
X0163281Y0048565D01*
X0163213Y0048596D01*
X0163144Y0048624D01*
X0163073Y0048648D01*
X0163001Y0048669D01*
X0162928Y0048686D01*
X0162855Y0048699D01*
X0162780Y0048708D01*
X0162706Y0048714D01*
X0162631Y0048716D01*
X0144836Y0064248D02*
X0144836Y0076551D01*
X0147710Y0079425D01*
X0155017Y0079425D01*
X0155017Y0083972D01*
X0157379Y0086335D01*
X0163537Y0079504D02*
X0167966Y0083933D01*
X0169442Y0083933D01*
X0178793Y0093283D01*
X0191588Y0093283D01*
X0193064Y0094760D01*
X0193064Y0116413D01*
X0192572Y0116906D01*
X0189127Y0116906D01*
X0188694Y0117181D01*
X0134993Y0128193D02*
X0132009Y0131177D01*
X0176883Y0085902D02*
X0177316Y0085902D01*
X0176883Y0085902D02*
X0165289Y0074307D01*
X0155017Y0074307D01*
X0155017Y0071748D02*
X0168084Y0071748D01*
X0160741Y0076866D02*
X0155017Y0076866D01*
X0149757Y0076866D01*
X0149757Y0069169D01*
X0155017Y0069169D01*
X0155017Y0069189D01*
X0160741Y0076866D02*
X0163123Y0079248D01*
X0163537Y0079504D01*
X0103399Y0064740D02*
X0103399Y0055291D01*
X0097592Y0049484D01*
X0097592Y0040626D01*
X0100544Y0037673D01*
X0109568Y0037673D01*
X0111155Y0039260D01*
X0106981Y0031354D02*
X0106863Y0031354D01*
X0088635Y0054504D02*
X0087749Y0055390D01*
X0087749Y0060252D01*
X0091974Y0064969D01*
X0272056Y0059598D02*
X0272076Y0059598D01*
D33*
X0219639Y0055390D02*
X0219639Y0038366D01*
X0218828Y0038366D01*
X0214718Y0041610D02*
X0214635Y0041528D01*
X0213399Y0041528D01*
X0208812Y0052929D02*
X0208812Y0053421D01*
X0212749Y0057358D01*
X0217670Y0057358D01*
X0219639Y0055390D01*
X0155170Y0046157D02*
X0155170Y0046039D01*
X0155170Y0046157D02*
X0155017Y0046157D01*
X0119245Y0054406D02*
X0117178Y0056472D01*
X0110919Y0056472D01*
X0110919Y0054504D02*
X0106135Y0054504D01*
X0101419Y0049787D01*
X0101419Y0044780D01*
X0108505Y0044780D02*
X0108505Y0050567D01*
X0110919Y0050567D01*
X0110919Y0052535D02*
X0115210Y0052535D01*
X0115308Y0052437D01*
X0110919Y0058441D02*
X0110919Y0064307D01*
X0110485Y0064740D01*
X0099060Y0064969D02*
X0098576Y0063992D01*
X0098576Y0054406D01*
X0096706Y0052535D01*
X0093202Y0052535D01*
X0093202Y0050567D02*
X0092832Y0050197D01*
X0093202Y0054504D02*
X0088635Y0054504D01*
X0093202Y0058441D02*
X0095623Y0058441D01*
X0095623Y0069169D01*
X0059698Y0099189D02*
X0054560Y0094051D01*
X0059698Y0099189D02*
X0059698Y0125764D01*
D34*
X0051824Y0126256D03*
X0072985Y0141020D03*
X0087442Y0143319D03*
X0087442Y0135287D03*
X0127119Y0084917D03*
X0071017Y0054406D03*
X0120230Y0041610D03*
X0117769Y0029307D03*
X0172395Y0046531D03*
X0209796Y0047516D03*
X0190111Y0085902D03*
X0271804Y0111492D03*
X0271804Y0118874D03*
X0271804Y0125764D03*
X0294434Y0010390D03*
X0304513Y0010390D03*
X0314592Y0010390D03*
D35*
X0252056Y0050350D02*
X0252119Y0050469D01*
X0252119Y0055390D01*
X0251627Y0055390D01*
X0244737Y0062280D01*
X0244627Y0062280D01*
X0252056Y0059598D02*
X0252119Y0059327D01*
X0252119Y0055390D01*
X0272056Y0059598D02*
X0272296Y0059819D01*
X0252611Y0068185D02*
X0252367Y0068087D01*
X0252611Y0068185D02*
X0252611Y0072614D01*
X0244737Y0072614D01*
X0244627Y0072280D01*
X0252611Y0072614D02*
X0252611Y0076059D01*
X0252367Y0076083D01*
X0229481Y0089346D02*
X0229107Y0089626D01*
X0215210Y0090331D02*
X0214899Y0089697D01*
X0214718Y0089346D01*
X0214718Y0082457D01*
X0214627Y0082280D01*
X0215210Y0090331D02*
X0228989Y0104110D01*
X0228989Y0109524D01*
X0229107Y0109626D01*
X0164029Y0086394D02*
X0163123Y0086335D01*
X0214627Y0072280D02*
X0214718Y0072122D01*
X0170919Y0040134D02*
X0164521Y0040134D01*
X0164107Y0040154D01*
X0164029Y0040134D01*
X0159107Y0040134D01*
X0158615Y0040626D01*
X0158615Y0045547D01*
X0158123Y0046039D01*
X0155170Y0046039D01*
X0137454Y0032260D02*
X0130564Y0032260D01*
X0125643Y0025370D01*
X0097592Y0025370D01*
X0092832Y0031082D01*
X0137454Y0032260D02*
X0151726Y0017988D01*
X0160092Y0026846D02*
X0164029Y0022909D01*
X0160092Y0026846D02*
X0160186Y0027587D01*
X0160092Y0027831D01*
X0154678Y0027831D01*
X0154655Y0027528D01*
X0178793Y0032260D02*
X0184206Y0032260D01*
X0185190Y0031276D01*
X0185682Y0031768D01*
X0199462Y0031768D01*
X0200446Y0032752D01*
X0209304Y0032752D01*
X0209796Y0032260D01*
X0209796Y0023402D01*
X0204875Y0027339D02*
X0204962Y0027756D01*
X0204875Y0027339D02*
X0197985Y0020449D01*
X0185190Y0023894D02*
X0185190Y0027339D01*
X0185277Y0027756D01*
X0185190Y0028323D01*
X0185190Y0031276D01*
X0179777Y0027831D02*
X0179871Y0027587D01*
X0184206Y0022909D02*
X0185190Y0023894D01*
X0054285Y0118165D02*
X0054285Y0118382D01*
X0059698Y0125764D02*
X0059600Y0126630D01*
D36*
X0059600Y0093953D02*
X0059600Y0089445D01*
X0062159Y0086886D01*
X0070033Y0086886D01*
X0084550Y0083687D02*
X0084550Y0034100D01*
X0087296Y0031354D01*
X0092832Y0031082D02*
X0092832Y0050197D01*
X0111155Y0040409D02*
X0111155Y0039260D01*
X0111155Y0035528D01*
X0106981Y0031354D01*
X0115722Y0031354D01*
X0117769Y0029307D01*
X0111155Y0040409D02*
X0113340Y0042594D01*
X0113340Y0045870D01*
X0113379Y0045909D01*
X0115670Y0045909D01*
X0116293Y0046531D01*
X0116293Y0051453D01*
X0115308Y0052437D01*
X0119245Y0051276D02*
X0120230Y0051276D01*
X0120230Y0046146D01*
X0120466Y0045909D01*
X0126230Y0051276D02*
X0126230Y0053835D01*
X0126230Y0056374D02*
X0126230Y0056394D01*
X0126230Y0058953D02*
X0119041Y0058953D01*
X0110919Y0064740D02*
X0110485Y0064740D01*
X0112848Y0068677D02*
X0104481Y0068677D01*
X0103989Y0068185D01*
X0103989Y0065331D01*
X0103399Y0064740D01*
X0163123Y0086335D02*
X0163123Y0092244D01*
X0167796Y0096917D01*
X0176883Y0085902D02*
X0180820Y0089839D01*
X0194541Y0089839D01*
X0178300Y0082949D02*
X0168084Y0071748D01*
X0201596Y0067169D02*
X0209659Y0072280D01*
X0214627Y0072280D01*
X0244627Y0052280D02*
X0244627Y0048118D01*
X0262060Y0039937D02*
X0262060Y0037969D01*
X0279537Y0020492D01*
X0262060Y0019937D02*
X0260092Y0019937D01*
X0251214Y0028815D01*
X0209796Y0047516D02*
X0178300Y0047516D01*
X0172395Y0046531D02*
X0171686Y0047240D01*
X0164107Y0047240D01*
X0255194Y0092555D02*
X0267119Y0092555D01*
X0272296Y0087378D01*
X0272296Y0076154D01*
X0272367Y0076083D01*
X0287552Y0080980D02*
X0260978Y0107555D01*
X0260978Y0117398D01*
X0258025Y0117398D01*
X0255194Y0112555D02*
X0255194Y0109894D01*
X0277218Y0087870D01*
X0277218Y0064760D01*
X0272056Y0059598D01*
X0275851Y0100801D02*
X0275851Y0107446D01*
X0271804Y0111492D01*
X0282327Y0106918D02*
X0282327Y0101411D01*
X0282937Y0100801D01*
X0287327Y0106918D02*
X0287327Y0127518D01*
X0272789Y0127240D02*
X0271804Y0125764D01*
X0272789Y0127240D02*
X0272789Y0139051D01*
X0284107Y0150370D01*
X0309206Y0150370D01*
X0311638Y0147938D01*
X0311638Y0131687D01*
X0308370Y0105206D02*
X0308351Y0105187D01*
D37*
X0163123Y0086335D02*
X0163123Y0085916D01*
X0161873Y0085916D01*
X0125623Y0109041D02*
X0125623Y0115291D01*
X0125623Y0109041D02*
X0116248Y0099666D01*
X0098123Y0117791D01*
X0102623Y0119791D02*
X0104623Y0117791D01*
X0108123Y0117791D01*
X0086962Y0121315D02*
X0086623Y0121654D01*
X0086873Y0121541D02*
X0086962Y0121315D01*
X0086873Y0121541D02*
X0079373Y0121541D01*
X0079373Y0102166D01*
X0071248Y0102166D01*
X0063123Y0094041D01*
X0062749Y0093953D01*
X0108123Y0097791D02*
X0108123Y0099666D01*
D38*
X0086962Y0102417D02*
X0079624Y0102417D01*
X0079594Y0102415D01*
X0079564Y0102410D01*
X0079535Y0102401D01*
X0079507Y0102388D01*
X0079481Y0102373D01*
X0079458Y0102354D01*
X0079436Y0102332D01*
X0079417Y0102309D01*
X0079402Y0102283D01*
X0079389Y0102255D01*
X0079380Y0102226D01*
X0079375Y0102196D01*
X0079373Y0102166D01*
X0146812Y0096902D02*
X0157379Y0086335D01*
X0163123Y0086335D01*
D39*
X0297327Y0106918D02*
X0301264Y0106918D01*
X0301264Y0105187D01*
D40*
X0231450Y0113461D02*
X0225544Y0113461D01*
D41*
X0065899Y0093953D02*
X0062749Y0093953D01*
M02*
